<svg width="134" height="61" viewBox="0 0 134 61" fill="none" xmlns="http://www.w3.org/2000/svg">
<rect x="1.7627" y="12.342" width="129.592" height="36.1447" fill="#0066AB"/>
<path d="M32.5389 34.5389C32.6855 34.5389 32.8155 34.5955 32.9289 34.7089L33.9889 35.8589C33.4022 36.5855 32.6789 37.1422 31.8189 37.5289C30.9655 37.9155 29.9389 38.1089 28.7389 38.1089C27.6655 38.1089 26.6989 37.9255 25.8389 37.5589C24.9855 37.1922 24.2555 36.6822 23.6489 36.0289C23.0422 35.3755 22.5755 34.5955 22.2489 33.6889C21.9289 32.7822 21.7689 31.7922 21.7689 30.7189C21.7689 29.6322 21.9422 28.6389 22.2889 27.7389C22.6355 26.8322 23.1222 26.0522 23.7489 25.3989C24.3822 24.7455 25.1355 24.2389 26.0089 23.8789C26.8822 23.5122 27.8489 23.3289 28.9089 23.3289C29.9622 23.3289 30.8955 23.5022 31.7089 23.8489C32.5289 24.1955 33.2255 24.6489 33.7989 25.2089L32.8989 26.4589C32.8455 26.5389 32.7755 26.6089 32.6889 26.6689C32.6089 26.7289 32.4955 26.7589 32.3489 26.7589C32.2489 26.7589 32.1455 26.7322 32.0389 26.6789C31.9322 26.6189 31.8155 26.5489 31.6889 26.4689C31.5622 26.3822 31.4155 26.2889 31.2489 26.1889C31.0822 26.0889 30.8889 25.9989 30.6689 25.9189C30.4489 25.8322 30.1922 25.7622 29.8989 25.7089C29.6122 25.6489 29.2789 25.6189 28.8989 25.6189C28.2522 25.6189 27.6589 25.7355 27.1189 25.9689C26.5855 26.1955 26.1255 26.5289 25.7389 26.9689C25.3522 27.4022 25.0522 27.9355 24.8389 28.5689C24.6255 29.1955 24.5189 29.9122 24.5189 30.7189C24.5189 31.5322 24.6322 32.2555 24.8589 32.8889C25.0922 33.5222 25.4055 34.0555 25.7989 34.4889C26.1922 34.9222 26.6555 35.2555 27.1889 35.4889C27.7222 35.7155 28.2955 35.8289 28.9089 35.8289C29.2755 35.8289 29.6055 35.8089 29.8989 35.7689C30.1989 35.7289 30.4722 35.6655 30.7189 35.5789C30.9722 35.4922 31.2089 35.3822 31.4289 35.2489C31.6555 35.1089 31.8789 34.9389 32.0989 34.7389C32.1655 34.6789 32.2355 34.6322 32.3089 34.5989C32.3822 34.5589 32.4589 34.5389 32.5389 34.5389ZM49.309 30.7189C49.309 31.7789 49.1324 32.7622 48.779 33.6689C48.4324 34.5689 47.939 35.3489 47.299 36.0089C46.659 36.6689 45.889 37.1855 44.989 37.5589C44.089 37.9255 43.089 38.1089 41.989 38.1089C40.8957 38.1089 39.899 37.9255 38.999 37.5589C38.099 37.1855 37.3257 36.6689 36.679 36.0089C36.039 35.3489 35.5424 34.5689 35.189 33.6689C34.8357 32.7622 34.659 31.7789 34.659 30.7189C34.659 29.6589 34.8357 28.6789 35.189 27.7789C35.5424 26.8722 36.039 26.0889 36.679 25.4289C37.3257 24.7689 38.099 24.2555 38.999 23.8889C39.899 23.5155 40.8957 23.3289 41.989 23.3289C42.7224 23.3289 43.4124 23.4155 44.059 23.5889C44.7057 23.7555 45.299 23.9955 45.839 24.3089C46.379 24.6155 46.8624 24.9922 47.289 25.4389C47.7224 25.8789 48.089 26.3722 48.389 26.9189C48.689 27.4655 48.9157 28.0589 49.069 28.6989C49.229 29.3389 49.309 30.0122 49.309 30.7189ZM46.559 30.7189C46.559 29.9255 46.4524 29.2155 46.239 28.5889C46.0257 27.9555 45.7224 27.4189 45.329 26.9789C44.9357 26.5389 44.4557 26.2022 43.889 25.9689C43.329 25.7355 42.6957 25.6189 41.989 25.6189C41.2824 25.6189 40.6457 25.7355 40.079 25.9689C39.519 26.2022 39.039 26.5389 38.639 26.9789C38.2457 27.4189 37.9424 27.9555 37.729 28.5889C37.5157 29.2155 37.409 29.9255 37.409 30.7189C37.409 31.5122 37.5157 32.2255 37.729 32.8589C37.9424 33.4855 38.2457 34.0189 38.639 34.4589C39.039 34.8922 39.519 35.2255 40.079 35.4589C40.6457 35.6922 41.2824 35.8089 41.989 35.8089C42.6957 35.8089 43.329 35.6922 43.889 35.4589C44.4557 35.2255 44.9357 34.8922 45.329 34.4589C45.7224 34.0189 46.0257 33.4855 46.239 32.8589C46.4524 32.2255 46.559 31.5122 46.559 30.7189ZM63.5926 23.4889L57.7526 37.9489H55.3226L49.4826 23.4889H51.6426C51.876 23.4889 52.066 23.5455 52.2126 23.6589C52.3593 23.7722 52.4693 23.9189 52.5426 24.0989L55.9526 32.9189C56.066 33.2055 56.1726 33.5222 56.2726 33.8689C56.3793 34.2089 56.4793 34.5655 56.5726 34.9389C56.6526 34.5655 56.7393 34.2089 56.8326 33.8689C56.926 33.5222 57.0293 33.2055 57.1426 32.9189L60.5326 24.0989C60.586 23.9455 60.6893 23.8055 60.8426 23.6789C61.0026 23.5522 61.196 23.4889 61.4226 23.4889H63.5926ZM67.7893 37.9489H65.0893V23.4889H67.7893V37.9489ZM83.8668 30.7189C83.8668 31.7789 83.6902 32.7522 83.3368 33.6389C82.9835 34.5255 82.4868 35.2889 81.8468 35.9289C81.2068 36.5689 80.4368 37.0655 79.5368 37.4189C78.6368 37.7722 77.6368 37.9489 76.5368 37.9489H71.0268V23.4889H76.5368C77.6368 23.4889 78.6368 23.6689 79.5368 24.0289C80.4368 24.3822 81.2068 24.8789 81.8468 25.5189C82.4868 26.1522 82.9835 26.9122 83.3368 27.7989C83.6902 28.6855 83.8668 29.6589 83.8668 30.7189ZM81.1068 30.7189C81.1068 29.9255 81.0002 29.2155 80.7868 28.5889C80.5802 27.9555 80.2768 27.4222 79.8768 26.9889C79.4835 26.5489 79.0035 26.2122 78.4368 25.9789C77.8768 25.7455 77.2435 25.6289 76.5368 25.6289H73.7268V35.8089H76.5368C77.2435 35.8089 77.8768 35.6922 78.4368 35.4589C79.0035 35.2255 79.4835 34.8922 79.8768 34.4589C80.2768 34.0189 80.5802 33.4855 80.7868 32.8589C81.0002 32.2255 81.1068 31.5122 81.1068 30.7189ZM85.7717 30.8789H90.9517V32.9389H85.7717V30.8789ZM102.443 36.0989V37.9489H94.4426V36.0989H97.3726V27.6689C97.3726 27.3355 97.3826 26.9922 97.4026 26.6389L95.3226 28.3789C95.2026 28.4722 95.0826 28.5322 94.9626 28.5589C94.8493 28.5789 94.7393 28.5789 94.6326 28.5589C94.5326 28.5389 94.4426 28.5055 94.3626 28.4589C94.2826 28.4055 94.2226 28.3489 94.1826 28.2889L93.4026 27.2189L97.8126 23.4689H99.8426V36.0989H102.443ZM106.994 27.8289C106.994 28.6355 107.201 29.2522 107.614 29.6789C108.034 30.0989 108.628 30.3089 109.394 30.3089C109.794 30.3089 110.151 30.2455 110.464 30.1189C110.778 29.9922 111.041 29.8189 111.254 29.5989C111.468 29.3789 111.628 29.1189 111.734 28.8189C111.848 28.5189 111.904 28.1955 111.904 27.8489C111.904 27.4555 111.844 27.1055 111.724 26.7989C111.604 26.4855 111.434 26.2222 111.214 26.0089C110.994 25.7955 110.731 25.6322 110.424 25.5189C110.124 25.4055 109.794 25.3489 109.434 25.3489C109.061 25.3489 108.724 25.4122 108.424 25.5389C108.124 25.6589 107.868 25.8289 107.654 26.0489C107.441 26.2689 107.278 26.5322 107.164 26.8389C107.051 27.1389 106.994 27.4689 106.994 27.8289ZM110.274 32.3389C110.388 32.1989 110.494 32.0622 110.594 31.9289C110.694 31.7955 110.791 31.6622 110.884 31.5289C110.551 31.7422 110.184 31.9055 109.784 32.0189C109.384 32.1255 108.964 32.1789 108.524 32.1789C108.024 32.1789 107.534 32.0922 107.054 31.9189C106.574 31.7455 106.148 31.4855 105.774 31.1389C105.401 30.7855 105.098 30.3522 104.864 29.8389C104.638 29.3189 104.524 28.7122 104.524 28.0189C104.524 27.3722 104.644 26.7655 104.884 26.1989C105.124 25.6322 105.461 25.1355 105.894 24.7089C106.328 24.2822 106.848 23.9455 107.454 23.6989C108.061 23.4522 108.731 23.3289 109.464 23.3289C110.204 23.3289 110.868 23.4455 111.454 23.6789C112.048 23.9122 112.551 24.2389 112.964 24.6589C113.384 25.0789 113.704 25.5822 113.924 26.1689C114.151 26.7555 114.264 27.3989 114.264 28.0989C114.264 28.5455 114.224 28.9689 114.144 29.3689C114.071 29.7689 113.964 30.1555 113.824 30.5289C113.684 30.8955 113.514 31.2555 113.314 31.6089C113.114 31.9622 112.891 32.3122 112.644 32.6589L109.334 37.3789C109.221 37.5389 109.051 37.6755 108.824 37.7889C108.598 37.8955 108.341 37.9489 108.054 37.9489H105.784L110.274 32.3389Z" fill="white"/>
<rect x="1.5" y="1.5" width="131" height="58" stroke="#16236E" stroke-width="3"/>
</svg>
