<svg width="38" height="38" viewBox="0 0 38 38" fill="none" xmlns="http://www.w3.org/2000/svg">
<path fill-rule="evenodd" clip-rule="evenodd" d="M19 0C8.50659 0 0 8.50659 0 19C0 29.4934 8.50659 38 19 38C29.4934 38 38 29.4934 38 19C38 8.50659 29.4934 0 19 0ZM14.8226 8.92789C15.9035 8.8787 16.2489 8.86667 19.001 8.86667H18.9978C21.7507 8.86667 22.0948 8.8787 23.1757 8.92789C24.2545 8.97729 24.9913 9.14808 25.6373 9.39867C26.3044 9.65729 26.8681 10.0035 27.4318 10.5672C27.9954 11.1304 28.3417 11.6958 28.6013 12.3623C28.8504 13.0066 29.0214 13.743 29.0721 14.8218C29.1207 15.9027 29.1333 16.248 29.1333 19.0001C29.1333 21.7522 29.1207 22.0967 29.0721 23.1776C29.0214 24.256 28.8504 24.9926 28.6013 25.6371C28.3417 26.3034 27.9954 26.8687 27.4318 27.432C26.8687 27.9956 26.3042 28.3427 25.6379 28.6015C24.9932 28.8521 24.256 29.0229 23.1772 29.0723C22.0963 29.1215 21.752 29.1335 18.9997 29.1335C16.2478 29.1335 15.9027 29.1215 14.8218 29.0723C13.7432 29.0229 13.0066 28.8521 12.3619 28.6015C11.6958 28.3427 11.1304 27.9956 10.5674 27.432C10.0039 26.8687 9.65771 26.3034 9.39867 25.6369C9.14829 24.9926 8.9775 24.2562 8.92789 23.1774C8.87891 22.0965 8.86667 21.7522 8.86667 19.0001C8.86667 16.248 8.87933 15.9024 8.92768 14.8215C8.97623 13.7432 9.14724 13.0066 9.39846 12.3621C9.65813 11.6958 10.0044 11.1304 10.568 10.5672C11.1313 10.0037 11.6966 9.6575 12.3631 9.39867C13.0074 9.14808 13.7438 8.97729 14.8226 8.92789Z" fill="white"/>
<path fill-rule="evenodd" clip-rule="evenodd" d="M18.0916 10.6928C18.2681 10.6925 18.458 10.6926 18.6629 10.6927L19.0007 10.6928C21.7063 10.6928 22.027 10.7025 23.0954 10.751C24.0834 10.7962 24.6197 10.9613 24.9769 11.1C25.4498 11.2837 25.7869 11.5032 26.1414 11.8579C26.496 12.2126 26.7156 12.5504 26.8997 13.0233C27.0384 13.38 27.2037 13.9163 27.2487 14.9043C27.2972 15.9725 27.3078 16.2934 27.3078 18.9978C27.3078 21.7021 27.2972 22.023 27.2487 23.0913C27.2035 24.0793 27.0384 24.6155 26.8997 24.9723C26.716 25.4452 26.496 25.7819 26.1414 26.1364C25.7867 26.491 25.45 26.7106 24.9769 26.8942C24.6201 27.0336 24.0834 27.1983 23.0954 27.2434C22.0272 27.292 21.7063 27.3025 19.0007 27.3025C16.2948 27.3025 15.9741 27.292 14.9059 27.2434C13.9179 27.1978 13.3817 27.0327 13.0243 26.894C12.5514 26.7104 12.2136 26.4908 11.8589 26.1361C11.5042 25.7815 11.2847 25.4445 11.1006 24.9714C10.9619 24.6146 10.7966 24.0784 10.7516 23.0904C10.7031 22.0222 10.6934 21.7013 10.6934 18.9952C10.6934 16.2892 10.7031 15.97 10.7516 14.9017C10.7968 13.9137 10.9619 13.3775 11.1006 13.0203C11.2843 12.5474 11.5042 12.2096 11.8589 11.855C12.2136 11.5003 12.5514 11.2807 13.0243 11.0966C13.3815 10.9573 13.9179 10.7926 14.9059 10.7472C15.8407 10.705 16.203 10.6924 18.0916 10.6902V10.6928ZM24.4098 12.3754C23.7385 12.3754 23.1938 12.9194 23.1938 13.5909C23.1938 14.2623 23.7385 14.807 24.4098 14.807C25.0812 14.807 25.6258 14.2623 25.6258 13.5909C25.6258 12.9196 25.0812 12.3749 24.4098 12.3749V12.3754ZM13.7967 19.0001C13.7967 16.1263 16.1267 13.7963 19.0005 13.7961C21.8743 13.7961 24.2038 16.1262 24.2038 19.0001C24.2038 21.874 21.8746 24.203 19.0007 24.203C16.1268 24.203 13.7967 21.874 13.7967 19.0001Z" fill="white"/>
<path d="M19.0009 15.6223C20.8663 15.6223 22.3787 17.1345 22.3787 19.0001C22.3787 20.8655 20.8663 22.3779 19.0009 22.3779C17.1353 22.3779 15.623 20.8655 15.623 19.0001C15.623 17.1345 17.1353 15.6223 19.0009 15.6223Z" fill="white"/>
</svg>
