<svg width="237" height="98" viewBox="0 0 237 98" fill="none" xmlns="http://www.w3.org/2000/svg">
<path d="M2.63231 24.109L33.6323 0.108992C36.0326 -0.691008 35.9655 3.10899 35.6319 5.10899L8.13193 24.109C6.13193 26.1089 9.13193 29.6089 12.6319 28.609L62.1319 15.109C63.632 14.6089 64.6319 14.6089 64.6319 15.609L66.6319 79.109V79.1091C66.6318 80.1089 66.6318 80.6089 65.6319 81.109L61.6319 82.109L64.6319 86.109C66.2319 88.509 63.9653 90.7757 62.6319 91.609L55.6319 96.609C52.4319 98.609 50.2986 96.4423 49.6319 95.109L45.1319 86.609L15.1319 95.109C7.13199 97.1089 3.63194 91.6089 3.63194 89.109L0.132314 33.109C0.132315 30.1089 -0.868016 26.6089 2.63231 24.109Z" fill="#16236E"/>
<path d="M13.1319 24.6089C12.1319 25.1089 12.1319 26.6089 13.6319 26.1089L33.6319 18.1089L53.6319 10.1089C54.8319 6.1088 53.4653 5.44218 52.6319 5.60889L32.8819 15.1089L13.1319 24.6089Z" fill="#16236E"/>
<path d="M30.7443 49.9646L32.5161 79.1987C32.5649 80.0049 33.5 80.4235 34.1339 79.9231L41.2227 74.3266C41.7018 73.9484 42.405 74.0839 42.7092 74.6131L53.0916 92.6693C53.3827 93.1755 54.0438 93.3257 54.525 92.9948L60.7694 88.7018C61.2392 88.3788 61.3443 87.729 61.0003 87.2743L48.2489 70.4243C47.9104 69.9769 48.006 69.3387 48.4608 69.0102L55.3792 64.0136C55.9672 63.5889 55.9217 62.6992 55.2934 62.3367L32.2422 49.0379C31.552 48.6398 30.6961 49.1693 30.7443 49.9646Z" fill="white"/>
<path d="M85.44 17.68H88.704V31.312H96.144V34H85.44V17.68ZM97.0069 19.216C97.0069 18.28 97.6309 17.872 98.7349 17.872C99.8389 17.872 100.463 18.28 100.463 19.216C100.463 20.176 99.8389 20.608 98.7349 20.608C97.6309 20.608 97.0069 20.176 97.0069 19.216ZM97.2469 22H100.223V34H97.2469V22ZM105.473 17.68V23.2H105.521C106.265 22.36 107.465 21.76 108.737 21.76C112.001 21.76 113.345 24.568 113.345 28C113.345 31.432 111.521 34.24 107.417 34.24C105.473 34.24 103.745 33.808 102.497 33.28V17.68H105.473ZM105.473 24.976V31.72C106.049 32.008 106.697 32.128 107.345 32.128C109.361 32.128 110.225 30.592 110.225 28.144C110.225 25.744 109.433 24.16 107.633 24.16C106.625 24.16 105.857 24.664 105.473 24.976ZM118.246 25.72V34H115.27V22H117.934L118.246 24.328H118.294C119.11 22.72 120.67 21.76 122.278 21.76V24.592C120.502 24.592 118.99 25.24 118.246 25.72ZM128.194 34.24C124.162 34.24 122.554 31.36 122.554 28C122.554 24.64 124.162 21.76 128.194 21.76C132.202 21.76 133.834 24.64 133.834 28C133.834 31.36 132.202 34.24 128.194 34.24ZM128.194 23.872C126.25 23.872 125.674 25.72 125.674 28C125.674 30.304 126.25 32.128 128.194 32.128C130.138 32.128 130.714 30.304 130.714 28C130.714 25.72 130.138 23.872 128.194 23.872ZM148.738 34L148.426 32.8H148.378C147.634 33.64 146.41 34.24 145.162 34.24C141.874 34.24 140.554 31.432 140.554 28C140.554 24.568 142.066 21.76 145.33 21.76C146.482 21.76 147.634 22.264 148.378 23.104H148.426V17.68H151.402V34H148.738ZM148.426 31.048V24.976C148.042 24.664 147.274 24.16 146.266 24.16C144.466 24.16 143.674 25.768 143.674 28C143.674 30.256 144.466 31.84 146.266 31.84C147.274 31.84 148.042 31.36 148.426 31.048ZM164.271 28.672H156.447C156.543 30.472 157.431 31.984 160.287 31.984C161.391 31.984 162.519 31.84 163.551 31.408L163.887 33.544C162.279 34.12 160.839 34.24 159.711 34.24C155.199 34.24 153.327 31.6 153.327 28C153.327 24.4 155.415 21.76 159.399 21.76C163.047 21.76 164.511 24.016 164.511 26.44C164.511 27.04 164.439 27.976 164.271 28.672ZM156.447 26.728H161.607C161.679 26.296 161.679 25.984 161.679 25.768C161.679 24.88 161.007 23.728 159.327 23.728C157.287 23.728 156.447 25.408 156.447 26.728ZM98.496 62H94.824L91.44 56H88.704V62H85.44V45.68H92.4C95.808 45.68 97.944 47.744 97.944 50.84C97.944 53.192 96.768 54.872 94.776 55.616L98.496 62ZM88.704 48.368V53.312H92.088C93.6 53.312 94.68 52.496 94.68 50.84C94.68 49.184 93.6 48.368 92.304 48.368H88.704ZM109.779 56.672H101.955C102.051 58.472 102.939 59.984 105.795 59.984C106.899 59.984 108.027 59.84 109.059 59.408L109.395 61.544C107.787 62.12 106.347 62.24 105.219 62.24C100.707 62.24 98.835 59.6 98.835 56C98.835 52.4 100.923 49.76 104.907 49.76C108.555 49.76 110.019 52.016 110.019 54.44C110.019 55.04 109.947 55.976 109.779 56.672ZM101.955 54.728H107.115C107.187 54.296 107.187 53.984 107.187 53.768C107.187 52.88 106.515 51.728 104.835 51.728C102.795 51.728 101.955 53.408 101.955 54.728ZM120.374 59.504L120.806 61.664C119.774 62 118.55 62.24 117.374 62.24C113.39 62.24 111.374 59.696 111.374 56C111.374 52.304 113.39 49.76 117.374 49.76C118.55 49.76 119.774 50 120.806 50.336L120.374 52.496C119.342 52.184 118.574 52.016 117.734 52.016C115.406 52.016 114.494 53.744 114.494 56C114.494 58.256 115.406 59.984 117.734 59.984C118.574 59.984 119.342 59.816 120.374 59.504ZM125.371 45.68V59.12C125.371 59.768 125.611 60.032 126.235 60.032C126.499 60.032 126.763 60.008 127.051 59.936V62.048C126.403 62.168 125.683 62.24 125.131 62.24C122.827 62.24 122.395 60.992 122.395 59.408V45.68H125.371ZM134.884 54.632V53.696C134.884 52.52 134.116 51.848 132.7 51.848C131.596 51.848 130.156 52.208 128.908 52.736L128.308 50.696C130.252 50.048 131.692 49.76 133.156 49.76C135.916 49.76 137.86 51.08 137.86 53.6V62H135.172L134.884 60.704C133.708 61.88 132.58 62.24 131.212 62.24C129.196 62.24 127.684 61.04 127.684 59.12C127.684 56.24 130.252 55.064 134.884 54.632ZM134.884 58.88V56.336C132.244 56.552 130.684 57.344 130.684 58.544C130.684 59.48 131.332 59.984 132.316 59.984C133.3 59.984 134.308 59.504 134.884 58.88ZM143.114 51.608H143.162C144.218 50.48 145.346 49.76 146.93 49.76C148.562 49.76 149.642 50.384 150.146 51.776C151.514 50.384 152.834 49.76 154.322 49.76C156.698 49.76 157.898 51.128 157.898 53.624V62H154.922V54.176C154.922 53.048 154.466 52.16 153.002 52.16C152.042 52.16 151.13 52.712 150.458 53.216C150.482 53.528 150.506 53.84 150.506 54.176V62H147.53V54.176C147.53 53.048 147.074 52.16 145.61 52.16C144.554 52.16 143.642 52.808 143.114 53.216V62H140.138V50H142.802L143.114 51.608ZM166.899 54.632V53.696C166.899 52.52 166.131 51.848 164.715 51.848C163.611 51.848 162.171 52.208 160.923 52.736L160.323 50.696C162.267 50.048 163.707 49.76 165.171 49.76C167.931 49.76 169.875 51.08 169.875 53.6V62H167.187L166.899 60.704C165.723 61.88 164.595 62.24 163.227 62.24C161.211 62.24 159.699 61.04 159.699 59.12C159.699 56.24 162.267 55.064 166.899 54.632ZM166.899 58.88V56.336C164.259 56.552 162.699 57.344 162.699 58.544C162.699 59.48 163.347 59.984 164.331 59.984C165.315 59.984 166.323 59.504 166.899 58.88ZM180.796 59.504L181.228 61.664C180.196 62 178.972 62.24 177.796 62.24C173.812 62.24 171.796 59.696 171.796 56C171.796 52.304 173.812 49.76 177.796 49.76C178.972 49.76 180.196 50 181.228 50.336L180.796 52.496C179.764 52.184 178.996 52.016 178.156 52.016C175.828 52.016 174.916 53.744 174.916 56C174.916 58.256 175.828 59.984 178.156 59.984C178.996 59.984 179.764 59.816 180.796 59.504ZM182.577 47.216C182.577 46.28 183.201 45.872 184.305 45.872C185.409 45.872 186.033 46.28 186.033 47.216C186.033 48.176 185.409 48.608 184.305 48.608C183.201 48.608 182.577 48.176 182.577 47.216ZM182.817 50H185.793V62H182.817V50ZM193.35 62.24C189.318 62.24 187.71 59.36 187.71 56C187.71 52.64 189.318 49.76 193.35 49.76C197.358 49.76 198.99 52.64 198.99 56C198.99 59.36 197.358 62.24 193.35 62.24ZM193.35 51.872C191.406 51.872 190.83 53.72 190.83 56C190.83 58.304 191.406 60.128 193.35 60.128C195.294 60.128 195.87 58.304 195.87 56C195.87 53.72 195.294 51.872 193.35 51.872ZM203.887 53.216V62H200.911V50H203.575L203.887 51.44C204.919 50.456 206.215 49.76 207.799 49.76C210.175 49.76 211.375 51.128 211.375 53.624V62H208.399V54.176C208.399 53.048 207.943 52.16 206.479 52.16C205.423 52.16 204.415 52.808 203.887 53.216ZM224.248 56.672H216.424C216.52 58.472 217.408 59.984 220.264 59.984C221.368 59.984 222.496 59.84 223.528 59.408L223.864 61.544C222.256 62.12 220.816 62.24 219.688 62.24C215.176 62.24 213.304 59.6 213.304 56C213.304 52.4 215.392 49.76 219.376 49.76C223.024 49.76 224.488 52.016 224.488 54.44C224.488 55.04 224.416 55.976 224.248 56.672ZM216.424 54.728H221.584C221.656 54.296 221.656 53.984 221.656 53.768C221.656 52.88 220.984 51.728 219.304 51.728C217.264 51.728 216.424 53.408 216.424 54.728ZM235.369 50.336L234.937 52.496C233.713 52.112 232.321 51.8 231.409 51.8C229.945 51.8 229.465 52.52 229.465 53.072C229.465 55.184 235.657 54.584 235.657 58.472C235.657 60.92 233.617 62.24 230.545 62.24C228.889 62.24 227.209 62.048 225.817 61.688L226.297 59.504C227.881 59.984 229.225 60.2 230.113 60.2C231.769 60.2 232.177 59.36 232.177 58.832C232.177 56.696 226.057 57.44 226.057 53.336C226.057 51.032 228.049 49.76 231.097 49.76C232.753 49.76 233.977 49.976 235.369 50.336Z" fill="black"/>
<rect x="84" y="71" width="68" height="14" rx="4" fill="#0079C1"/>
<path d="M97.768 82H94.66V73.84H97.768C100.42 73.84 101.476 75.592 101.476 77.908C101.476 80.236 100.42 82 97.768 82ZM96.508 80.452H97.768C99.076 80.452 99.592 79.504 99.592 77.908C99.592 76.3 99.076 75.388 97.768 75.388H96.508V80.452ZM105.716 82H103.832V73.84H105.716V82ZM112.83 80.44V77.908H114.714V81.472C113.802 81.892 112.902 82.12 111.918 82.12C109.122 82.12 108.114 80.26 108.114 77.92C108.114 75.58 109.122 73.72 111.918 73.72C112.902 73.72 113.802 73.948 114.714 74.368L114.366 75.796C113.538 75.448 112.77 75.268 112.134 75.268C110.658 75.268 109.998 76.288 109.998 77.92C109.998 79.564 110.742 80.572 111.966 80.572C112.218 80.572 112.506 80.548 112.83 80.44ZM119.184 82H117.3V73.84H119.184V82ZM127.405 73.84V75.388H125.221V82H123.337V75.388H121.153V73.84H127.405ZM133.63 82L133.066 80.152H130.474L129.922 82H128.074L130.69 73.78H132.97L135.562 82H133.63ZM131.794 75.7H131.758L130.798 78.772H132.742L131.794 75.7ZM137.654 73.84H139.538V80.452H143.138V82H137.654V73.84Z" fill="white"/>
</svg>
