<svg width="230" height="48" viewBox="0 0 230 48" fill="none" xmlns="http://www.w3.org/2000/svg">
<rect x="1" y="1" width="228" height="46" rx="3" stroke="#1081C6" stroke-width="2"/>
<path d="M40.1132 26.5754C39.9758 27.4091 39.7393 28.2254 39.4071 29.0018C39.3784 29.0466 39.3598 29.0972 39.3527 29.15C39.3456 29.2027 39.3502 29.2564 39.3661 29.3072C39.382 29.3581 39.4089 29.4048 39.4448 29.4441C39.4807 29.4835 39.5248 29.5145 39.574 29.535C42.1254 31.211 44.6523 32.9253 47.2193 34.5614C47.4222 34.6777 47.5861 34.8515 47.6901 35.0608C47.7941 35.2701 47.8336 35.5055 47.8036 35.7372C47.7924 36.6412 47.4885 37.5173 46.9374 38.2345C46.3863 38.9517 45.6176 39.4716 44.7462 39.7164C44.6643 39.7443 44.5768 39.7518 44.4913 39.7381C44.4058 39.7245 44.3249 39.6902 44.2558 39.6382C41.8975 38.0733 39.5427 36.5101 37.1845 34.9522C36.8801 34.7507 36.5601 34.5562 36.2627 34.3478C36.2337 34.3166 36.198 34.2925 36.1583 34.2772C36.1185 34.2619 36.0758 34.2559 36.0334 34.2596C35.991 34.2633 35.9499 34.2766 35.9134 34.2985C35.8769 34.3204 35.8459 34.3503 35.8227 34.386C34.2322 35.9743 32.2971 37.1759 30.1671 37.8979C28.9474 38.3283 27.6783 38.6037 26.3897 38.7177C24.0064 38.9362 21.6059 38.5677 19.3984 37.6443C17.2674 36.8043 15.3556 35.4911 13.8078 33.8042C12.26 32.1173 11.1167 30.1009 10.4645 27.9076C10.1642 27.0206 9.98229 26.0979 9.92362 25.1634C9.83004 24.2338 9.91024 23.2951 10.1601 22.3948C10.8496 19.3489 12.4402 16.5803 14.7254 14.4488C16.61 12.6908 18.9828 11.5429 21.5323 11.1557C21.6418 11.1382 21.7533 11.1382 21.8627 11.1557C21.9341 11.1783 22.0019 11.2009 22.0071 11.2895C21.9271 11.4215 21.7862 11.4319 21.6575 11.4684C19.9396 11.9542 18.35 12.8123 17.0019 13.9816C15.4155 15.3304 14.1988 17.0601 13.4662 19.008C13.0104 20.2103 12.7435 21.4758 12.6749 22.7596C12.4625 25.9698 13.5353 29.1328 15.6575 31.5532C17.5757 33.8556 20.2865 35.3585 23.2575 35.7668C24.9931 36.0518 26.77 35.9556 28.4646 35.485C30.1591 35.0144 31.7306 34.1806 33.0697 33.0417C35.1631 31.3276 36.6382 28.9772 37.2705 26.3485C37.9028 23.7198 37.6576 20.9567 36.5723 18.48C35.9581 17.0831 35.1034 15.8045 34.0471 14.7024C33.934 14.5838 33.8126 14.4735 33.6836 14.3724C33.6001 14.3029 33.4993 14.2334 33.5271 14.0927C33.6958 14.0094 33.8071 14.1275 33.9167 14.2126C35.7383 15.6109 37.2371 17.3844 38.3114 19.4127C39.1793 21.0279 39.781 22.77 40.0958 24.5746C40.2088 25.2363 40.214 25.9119 40.1132 26.5754Z" fill="#0079C1"/>
<path d="M40.117 26.5754C40.0659 23.1474 38.8767 19.8333 36.7361 17.153C35.9195 16.0769 34.9593 15.1174 33.8822 14.3011C33.788 14.2042 33.6668 14.1377 33.5344 14.1101C33.3605 14.1483 33.2735 14.0163 33.1622 13.9277C31.2805 12.3417 28.9694 11.3497 26.5222 11.0776C25.2681 10.9188 23.9963 10.9692 22.7587 11.2269C22.6387 11.2526 22.5163 11.2654 22.3935 11.2651C22.2109 11.3016 22.0353 11.1818 21.8527 11.2356C20.5167 11.3761 19.2168 11.7543 18.0144 12.3524C14.7243 13.9801 12.1847 16.8061 10.9187 20.2481C10.2692 21.8089 9.92677 23.4801 9.91005 25.1703C9.77408 24.3398 9.7373 23.4962 9.80049 22.6571C9.87179 21.3475 10.1135 20.0518 10.5205 18.803C11.2178 16.6525 12.3777 14.6802 13.9187 13.0246C15.1309 11.7084 16.5677 10.6181 18.1622 9.80446C19.6976 9.02679 21.3522 8.51079 23.0579 8.27777C24.0895 8.12779 25.1342 8.08704 26.1744 8.15619C27.7769 8.268 29.3514 8.63384 30.8387 9.23998C33.8299 10.442 36.3665 12.5536 38.0889 15.2757C39.8113 17.9977 40.6322 21.1921 40.4353 24.4061C40.4109 25.139 40.3048 25.8668 40.117 26.5754Z" fill="#74BDEA"/>
<path d="M22.3932 11.1559C22.2712 11.23 22.1324 11.2718 21.9897 11.2775L21.8506 11.2201C22.0193 11.1073 22.221 11.175 22.3932 11.1559Z" fill="#1081C6"/>
<path d="M19.2104 20.2134C19.8174 19.7236 20.6069 19.5186 21.3756 19.6559C22.3043 19.7114 23.0626 20.4114 23.193 21.3302C23.4144 22.5141 23.2235 23.738 22.6521 24.7986C22.449 25.1786 22.1717 25.5142 21.8368 25.7856C21.5018 26.057 21.1159 26.2587 20.7017 26.3789C20.2875 26.4992 19.8534 26.5355 19.425 26.4857C18.9966 26.4359 18.5824 26.3011 18.2069 26.0891C18.0974 26.7248 17.9947 27.3483 17.8817 27.9719C17.8642 28.2049 17.796 28.4314 17.6817 28.6353C17.5627 28.8269 17.3821 28.9725 17.1695 29.0483C16.9569 29.124 16.7248 29.1254 16.5113 29.0522C16.1461 28.9028 15.9947 28.5606 16.0869 28.0344C16.2121 27.3119 16.3495 26.5893 16.4782 25.8651C16.7913 24.1109 17.1008 22.3567 17.4104 20.599C17.4304 20.4605 17.4783 20.3275 17.5512 20.2081C17.6242 20.0887 17.7206 19.9853 17.8347 19.9042C17.9396 19.8174 18.063 19.7557 18.1954 19.724C18.3278 19.6923 18.4658 19.6913 18.5987 19.7212C18.7315 19.751 18.8558 19.8109 18.9618 19.8963C19.0679 19.9816 19.1529 20.0901 19.2104 20.2134ZM30.5861 26.5025C30.2619 26.5341 29.9348 26.5094 29.6191 26.4295C29.2037 26.3442 28.8229 26.138 28.5246 25.837C28.2263 25.536 28.0238 25.1536 27.9426 24.7379C27.7527 24.0096 27.7576 23.2443 27.9569 22.5186C28.1562 21.7928 28.5429 21.1321 29.0782 20.6024C29.5556 20.1227 30.1656 19.7964 30.83 19.6655C31.4945 19.5346 32.1829 19.605 32.8069 19.8678C33.4852 20.0692 33.9582 20.6806 33.9826 21.3875C34.0574 22.1343 33.6487 22.8447 32.9652 23.1591C32.1608 23.5248 31.2873 23.7143 30.4034 23.7149C30.2264 23.7374 30.0478 23.7443 29.8695 23.7357C29.6174 23.7114 29.5339 23.7895 29.553 24.0449C29.5501 24.225 29.6094 24.4007 29.7209 24.5424C29.8323 24.684 29.9892 24.7831 30.1652 24.823C30.7217 24.9723 31.313 24.8994 31.8174 24.6232C31.9565 24.5485 32.0974 24.4669 32.233 24.4009C32.407 24.317 32.6058 24.3 32.7916 24.3529C32.9774 24.4059 33.1373 24.5252 33.2407 24.6881C33.3442 24.8511 33.3841 25.0463 33.3529 25.2367C33.3216 25.4272 33.2214 25.5995 33.0713 25.7209C32.4888 26.1823 31.7785 26.4539 31.0365 26.499C30.8859 26.5079 30.7367 26.5091 30.5861 26.5025ZM24.1982 24.8386C24.2626 24.0379 24.4521 23.2546 24.5756 22.4609C24.6 22.2976 24.6434 22.1343 24.6661 21.9693C24.7113 21.6689 24.9113 21.3528 24.3339 21.2416C23.8521 21.1478 23.8469 20.3871 24.28 20.031C24.3716 19.9304 24.4988 19.8693 24.6347 19.8608C25.0991 19.9025 25.0956 19.5829 25.1391 19.2703C25.1652 19.1035 25.1878 18.9368 25.2208 18.7753C25.2649 18.5654 25.3707 18.3734 25.5247 18.224C25.6787 18.0745 25.8738 17.9744 26.0852 17.9364C26.1967 17.9082 26.3134 17.9073 26.4253 17.9337C26.5373 17.96 26.6412 18.0129 26.7284 18.0879C26.8155 18.1628 26.8833 18.2576 26.9261 18.3643C26.9688 18.4709 26.9852 18.5863 26.9739 18.7006C26.9465 18.9884 26.9018 19.2744 26.84 19.5569C26.8121 19.7166 26.8087 19.8191 27.0347 19.8348C27.6574 19.8348 27.9078 20.0571 27.9078 20.5087C27.9062 20.629 27.8793 20.7476 27.8288 20.8568C27.7782 20.9661 27.7052 21.0634 27.6145 21.1426C27.5237 21.2217 27.4173 21.2809 27.3021 21.3162C27.187 21.3515 27.0656 21.3622 26.9461 21.3475C26.6365 21.3475 26.5061 21.4083 26.4591 21.7435C26.3252 22.6467 26.1426 23.5412 25.9791 24.4409C25.9339 24.684 25.9791 24.8508 26.2574 24.8994C26.7095 24.9689 26.9113 25.1773 26.9495 25.5351C26.9588 25.709 26.9157 25.8816 26.8258 26.0308C26.7359 26.18 26.6033 26.2989 26.4452 26.3722C26.2105 26.4733 25.9551 26.517 25.7001 26.4997C25.4452 26.4824 25.198 26.4047 24.9792 26.2729C24.7603 26.1411 24.5761 25.9591 24.4418 25.742C24.3075 25.5249 24.227 25.2789 24.2069 25.0244C24.2001 24.9627 24.1972 24.9007 24.1982 24.8386Z" fill="#0079C1"/>
<path d="M21.4868 22.5983C21.4694 23.1141 21.3355 23.6178 21.1025 24.0763C20.9609 24.3774 20.7269 24.6256 20.4345 24.7849C20.1421 24.9442 19.8065 25.0062 19.4764 24.9621C19.2702 24.9577 19.0724 24.8799 18.9187 24.7426C18.765 24.6053 18.6655 24.4177 18.6381 24.2136C18.4854 23.3917 18.6587 22.5427 19.1216 21.8462C19.2438 21.6566 19.4087 21.4981 19.6032 21.3835C19.7977 21.2689 20.0163 21.2013 20.2416 21.1862C20.3917 21.147 20.549 21.1439 20.7005 21.177C20.852 21.2102 20.9936 21.2787 21.1135 21.3769C21.2335 21.4752 21.3284 21.6004 21.3906 21.7424C21.4527 21.8843 21.4804 22.039 21.4712 22.1936C21.4816 22.3326 21.4816 22.4646 21.4886 22.5983H21.4868Z" fill="white"/>
<path d="M29.8994 22.3465C30.0214 21.9278 30.3047 21.5747 30.6872 21.3647C31.0698 21.1546 31.5201 21.1048 31.9394 21.2262H31.9516C32.2872 21.3495 32.3412 21.6187 32.0785 21.8688C31.9258 22.0023 31.7433 22.0976 31.5464 22.1467C31.009 22.2876 30.4549 22.3548 29.8994 22.3465Z" fill="white"/>
<path d="M62.048 24.248C62.4427 24.248 62.7867 24.2 63.08 24.104C63.3733 24.0027 63.616 23.8613 63.808 23.68C64.0053 23.4933 64.152 23.2693 64.248 23.008C64.344 22.7413 64.392 22.4453 64.392 22.12C64.392 21.8107 64.344 21.5307 64.248 21.28C64.152 21.0293 64.008 20.816 63.816 20.64C63.624 20.464 63.3813 20.3307 63.088 20.24C62.7947 20.144 62.448 20.096 62.048 20.096H60.44V24.248H62.048ZM62.048 18.432C62.8213 18.432 63.4907 18.5227 64.056 18.704C64.6213 18.8853 65.088 19.1387 65.456 19.464C65.824 19.7893 66.096 20.1787 66.272 20.632C66.4533 21.0853 66.544 21.5813 66.544 22.12C66.544 22.68 66.4507 23.1947 66.264 23.664C66.0773 24.128 65.7973 24.528 65.424 24.864C65.0507 25.2 64.5813 25.4613 64.016 25.648C63.456 25.8347 62.8 25.928 62.048 25.928H60.44V30H58.288V18.432H62.048ZM71.1393 21.664C71.7473 21.664 72.2993 21.7627 72.7953 21.96C73.2966 22.1573 73.7233 22.4373 74.0753 22.8C74.4326 23.1627 74.7072 23.6053 74.8993 24.128C75.0913 24.6507 75.1873 25.2347 75.1873 25.88C75.1873 26.5307 75.0913 27.1173 74.8993 27.64C74.7072 28.1627 74.4326 28.608 74.0753 28.976C73.7233 29.344 73.2966 29.6267 72.7953 29.824C72.2993 30.0213 71.7473 30.12 71.1393 30.12C70.5259 30.12 69.9686 30.0213 69.4673 29.824C68.9659 29.6267 68.5366 29.344 68.1793 28.976C67.8273 28.608 67.5526 28.1627 67.3553 27.64C67.1633 27.1173 67.0673 26.5307 67.0673 25.88C67.0673 25.2347 67.1633 24.6507 67.3553 24.128C67.5526 23.6053 67.8273 23.1627 68.1793 22.8C68.5366 22.4373 68.9659 22.1573 69.4673 21.96C69.9686 21.7627 70.5259 21.664 71.1393 21.664ZM71.1393 28.6C71.8219 28.6 72.3259 28.3707 72.6513 27.912C72.9819 27.4533 73.1473 26.7813 73.1473 25.896C73.1473 25.0107 72.9819 24.336 72.6513 23.872C72.3259 23.408 71.8219 23.176 71.1393 23.176C70.4459 23.176 69.9313 23.4107 69.5953 23.88C69.2646 24.344 69.0993 25.016 69.0993 25.896C69.0993 26.776 69.2646 27.448 69.5953 27.912C69.9313 28.3707 70.4459 28.6 71.1393 28.6ZM78.5588 23.216C78.8148 22.7253 79.1188 22.3413 79.4708 22.064C79.8228 21.7813 80.2388 21.64 80.7188 21.64C81.0974 21.64 81.4014 21.7227 81.6308 21.888L81.5028 23.368C81.4761 23.464 81.4361 23.5333 81.3828 23.576C81.3348 23.6133 81.2681 23.632 81.1828 23.632C81.1028 23.632 80.9828 23.6187 80.8228 23.592C80.6681 23.5653 80.5161 23.552 80.3668 23.552C80.1481 23.552 79.9534 23.584 79.7828 23.648C79.6121 23.712 79.4574 23.8053 79.3188 23.928C79.1854 24.0453 79.0654 24.1893 78.9588 24.36C78.8574 24.5307 78.7614 24.7253 78.6708 24.944V30H76.6948V21.792H77.8548C78.0574 21.792 78.1988 21.8293 78.2788 21.904C78.3588 21.9733 78.4121 22.1013 78.4388 22.288L78.5588 23.216ZM85.3995 30.128C84.6848 30.128 84.1355 29.928 83.7515 29.528C83.3728 29.1227 83.1835 28.5653 83.1835 27.856V23.272H82.3435C82.2368 23.272 82.1462 23.2373 82.0715 23.168C81.9968 23.0987 81.9595 22.9947 81.9595 22.856V22.072L83.2795 21.856L83.6955 19.616C83.7222 19.5093 83.7728 19.4267 83.8475 19.368C83.9222 19.3093 84.0182 19.28 84.1355 19.28H85.1595V21.864H87.3515V23.272H85.1595V27.72C85.1595 27.976 85.2208 28.176 85.3435 28.32C85.4715 28.464 85.6448 28.536 85.8635 28.536C85.9862 28.536 86.0875 28.5227 86.1675 28.496C86.2528 28.464 86.3248 28.432 86.3835 28.4C86.4475 28.368 86.5035 28.3387 86.5515 28.312C86.5995 28.28 86.6475 28.264 86.6955 28.264C86.7542 28.264 86.8022 28.28 86.8395 28.312C86.8768 28.3387 86.9168 28.3813 86.9595 28.44L87.5515 29.4C87.2635 29.64 86.9328 29.8213 86.5595 29.944C86.1862 30.0667 85.7995 30.128 85.3995 30.128ZM92.9526 26.496C92.382 26.5227 91.902 26.5733 91.5126 26.648C91.1233 26.7173 90.8113 26.808 90.5766 26.92C90.342 27.032 90.174 27.1627 90.0726 27.312C89.9713 27.4613 89.9206 27.624 89.9206 27.8C89.9206 28.1467 90.022 28.3947 90.2246 28.544C90.4326 28.6933 90.702 28.768 91.0326 28.768C91.438 28.768 91.7873 28.696 92.0806 28.552C92.3793 28.4027 92.67 28.1787 92.9526 27.88V26.496ZM88.4246 22.936C89.3686 22.072 90.5046 21.64 91.8326 21.64C92.3126 21.64 92.742 21.72 93.1206 21.88C93.4993 22.0347 93.8193 22.2533 94.0806 22.536C94.342 22.8133 94.5393 23.1467 94.6726 23.536C94.8113 23.9253 94.8806 24.352 94.8806 24.816V30H93.9846C93.798 30 93.654 29.9733 93.5526 29.92C93.4513 29.8613 93.3713 29.7467 93.3126 29.576L93.1366 28.984C92.9286 29.1707 92.726 29.336 92.5286 29.48C92.3313 29.6187 92.126 29.736 91.9126 29.832C91.6993 29.928 91.47 30 91.2246 30.048C90.9846 30.1013 90.718 30.128 90.4246 30.128C90.078 30.128 89.758 30.0827 89.4646 29.992C89.1713 29.896 88.918 29.7547 88.7046 29.568C88.4913 29.3813 88.326 29.1493 88.2086 28.872C88.0913 28.5947 88.0326 28.272 88.0326 27.904C88.0326 27.696 88.0673 27.4907 88.1366 27.288C88.206 27.08 88.318 26.8827 88.4726 26.696C88.6326 26.5093 88.838 26.3333 89.0886 26.168C89.3393 26.0027 89.646 25.8587 90.0086 25.736C90.3766 25.6133 90.8033 25.5147 91.2886 25.44C91.774 25.36 92.3286 25.312 92.9526 25.296V24.816C92.9526 24.2667 92.8353 23.8613 92.6006 23.6C92.366 23.3333 92.0273 23.2 91.5846 23.2C91.2646 23.2 90.998 23.2373 90.7846 23.312C90.5766 23.3867 90.3926 23.472 90.2326 23.568C90.0726 23.6587 89.926 23.7413 89.7926 23.816C89.6646 23.8907 89.5206 23.928 89.3606 23.928C89.222 23.928 89.1046 23.8933 89.0086 23.824C88.9126 23.7493 88.8353 23.664 88.7766 23.568L88.4246 22.936ZM98.7416 18.112V30H96.7656V18.112H98.7416ZM109.753 23.888C109.529 23.616 109.284 23.424 109.017 23.312C108.756 23.2 108.473 23.144 108.169 23.144C107.87 23.144 107.601 23.2 107.361 23.312C107.121 23.424 106.916 23.5947 106.745 23.824C106.574 24.048 106.444 24.336 106.353 24.688C106.262 25.0347 106.217 25.4453 106.217 25.92C106.217 26.4 106.254 26.808 106.329 27.144C106.409 27.4747 106.521 27.7467 106.665 27.96C106.809 28.168 106.985 28.32 107.193 28.416C107.401 28.5067 107.633 28.552 107.889 28.552C108.3 28.552 108.649 28.4667 108.937 28.296C109.225 28.1253 109.497 27.8827 109.753 27.568V23.888ZM111.729 18.112V30H110.521C110.26 30 110.094 29.88 110.025 29.64L109.857 28.848C109.526 29.2267 109.145 29.5333 108.713 29.768C108.286 30.0027 107.788 30.12 107.217 30.12C106.769 30.12 106.358 30.0267 105.985 29.84C105.612 29.6533 105.289 29.384 105.017 29.032C104.75 28.6747 104.542 28.2347 104.393 27.712C104.249 27.1893 104.177 26.592 104.177 25.92C104.177 25.312 104.26 24.7467 104.425 24.224C104.59 23.7013 104.828 23.248 105.137 22.864C105.446 22.48 105.817 22.1813 106.249 21.968C106.681 21.7493 107.166 21.64 107.705 21.64C108.164 21.64 108.556 21.712 108.881 21.856C109.206 22 109.497 22.1947 109.753 22.44V18.112H111.729ZM118.967 24.952C118.967 24.696 118.93 24.456 118.855 24.232C118.786 24.0027 118.679 23.8027 118.535 23.632C118.391 23.4613 118.207 23.328 117.983 23.232C117.764 23.1307 117.508 23.08 117.215 23.08C116.644 23.08 116.194 23.2427 115.863 23.568C115.538 23.8933 115.33 24.3547 115.239 24.952H118.967ZM115.199 26.144C115.231 26.5653 115.306 26.9307 115.423 27.24C115.54 27.544 115.695 27.7973 115.887 28C116.079 28.1973 116.306 28.3467 116.567 28.448C116.834 28.544 117.127 28.592 117.447 28.592C117.767 28.592 118.042 28.5547 118.271 28.48C118.506 28.4053 118.708 28.3227 118.879 28.232C119.055 28.1413 119.207 28.0587 119.335 27.984C119.468 27.9093 119.596 27.872 119.719 27.872C119.884 27.872 120.007 27.9333 120.087 28.056L120.655 28.776C120.436 29.032 120.191 29.248 119.919 29.424C119.647 29.5947 119.362 29.7333 119.063 29.84C118.77 29.9413 118.468 30.0133 118.159 30.056C117.855 30.0987 117.559 30.12 117.271 30.12C116.7 30.12 116.17 30.0267 115.679 29.84C115.188 29.648 114.762 29.368 114.399 29C114.036 28.6267 113.751 28.168 113.543 27.624C113.335 27.0747 113.231 26.44 113.231 25.72C113.231 25.16 113.322 24.6347 113.503 24.144C113.684 23.648 113.943 23.2187 114.279 22.856C114.62 22.488 115.034 22.1973 115.519 21.984C116.01 21.7707 116.562 21.664 117.175 21.664C117.692 21.664 118.17 21.7467 118.607 21.912C119.044 22.0773 119.42 22.32 119.735 22.64C120.05 22.9547 120.295 23.344 120.471 23.808C120.652 24.2667 120.743 24.792 120.743 25.384C120.743 25.6827 120.711 25.8853 120.647 25.992C120.583 26.0933 120.46 26.144 120.279 26.144H115.199ZM128.853 30.128C128.138 30.128 127.589 29.928 127.205 29.528C126.826 29.1227 126.637 28.5653 126.637 27.856V23.272H125.797C125.69 23.272 125.599 23.2373 125.525 23.168C125.45 23.0987 125.413 22.9947 125.413 22.856V22.072L126.733 21.856L127.149 19.616C127.175 19.5093 127.226 19.4267 127.301 19.368C127.375 19.3093 127.471 19.28 127.589 19.28H128.613V21.864H130.805V23.272H128.613V27.72C128.613 27.976 128.674 28.176 128.797 28.32C128.925 28.464 129.098 28.536 129.317 28.536C129.439 28.536 129.541 28.5227 129.621 28.496C129.706 28.464 129.778 28.432 129.837 28.4C129.901 28.368 129.957 28.3387 130.005 28.312C130.053 28.28 130.101 28.264 130.149 28.264C130.207 28.264 130.255 28.28 130.293 28.312C130.33 28.3387 130.37 28.3813 130.413 28.44L131.005 29.4C130.717 29.64 130.386 29.8213 130.013 29.944C129.639 30.0667 129.253 30.128 128.853 30.128ZM133.934 23.216C134.19 22.7253 134.494 22.3413 134.846 22.064C135.198 21.7813 135.614 21.64 136.094 21.64C136.472 21.64 136.776 21.7227 137.006 21.888L136.878 23.368C136.851 23.464 136.811 23.5333 136.758 23.576C136.71 23.6133 136.643 23.632 136.558 23.632C136.478 23.632 136.358 23.6187 136.198 23.592C136.043 23.5653 135.891 23.552 135.742 23.552C135.523 23.552 135.328 23.584 135.158 23.648C134.987 23.712 134.832 23.8053 134.694 23.928C134.56 24.0453 134.44 24.1893 134.334 24.36C134.232 24.5307 134.136 24.7253 134.046 24.944V30H132.07V21.792H133.23C133.432 21.792 133.574 21.8293 133.654 21.904C133.734 21.9733 133.787 22.1013 133.814 22.288L133.934 23.216ZM142.265 26.496C141.694 26.5227 141.214 26.5733 140.825 26.648C140.436 26.7173 140.124 26.808 139.889 26.92C139.654 27.032 139.486 27.1627 139.385 27.312C139.284 27.4613 139.233 27.624 139.233 27.8C139.233 28.1467 139.334 28.3947 139.537 28.544C139.745 28.6933 140.014 28.768 140.345 28.768C140.75 28.768 141.1 28.696 141.393 28.552C141.692 28.4027 141.982 28.1787 142.265 27.88V26.496ZM137.737 22.936C138.681 22.072 139.817 21.64 141.145 21.64C141.625 21.64 142.054 21.72 142.433 21.88C142.812 22.0347 143.132 22.2533 143.393 22.536C143.654 22.8133 143.852 23.1467 143.985 23.536C144.124 23.9253 144.193 24.352 144.193 24.816V30H143.297C143.11 30 142.966 29.9733 142.865 29.92C142.764 29.8613 142.684 29.7467 142.625 29.576L142.449 28.984C142.241 29.1707 142.038 29.336 141.841 29.48C141.644 29.6187 141.438 29.736 141.225 29.832C141.012 29.928 140.782 30 140.537 30.048C140.297 30.1013 140.03 30.128 139.737 30.128C139.39 30.128 139.07 30.0827 138.777 29.992C138.484 29.896 138.23 29.7547 138.017 29.568C137.804 29.3813 137.638 29.1493 137.521 28.872C137.404 28.5947 137.345 28.272 137.345 27.904C137.345 27.696 137.38 27.4907 137.449 27.288C137.518 27.08 137.63 26.8827 137.785 26.696C137.945 26.5093 138.15 26.3333 138.401 26.168C138.652 26.0027 138.958 25.8587 139.321 25.736C139.689 25.6133 140.116 25.5147 140.601 25.44C141.086 25.36 141.641 25.312 142.265 25.296V24.816C142.265 24.2667 142.148 23.8613 141.913 23.6C141.678 23.3333 141.34 23.2 140.897 23.2C140.577 23.2 140.31 23.2373 140.097 23.312C139.889 23.3867 139.705 23.472 139.545 23.568C139.385 23.6587 139.238 23.7413 139.105 23.816C138.977 23.8907 138.833 23.928 138.673 23.928C138.534 23.928 138.417 23.8933 138.321 23.824C138.225 23.7493 138.148 23.664 138.089 23.568L137.737 22.936ZM147.902 22.8C148.067 22.6347 148.241 22.4827 148.422 22.344C148.609 22.2 148.803 22.08 149.006 21.984C149.214 21.8827 149.435 21.8053 149.67 21.752C149.905 21.6933 150.161 21.664 150.438 21.664C150.886 21.664 151.283 21.7413 151.63 21.896C151.977 22.0453 152.265 22.2587 152.494 22.536C152.729 22.808 152.905 23.136 153.022 23.52C153.145 23.8987 153.206 24.3173 153.206 24.776V30H151.23V24.776C151.23 24.2747 151.115 23.888 150.886 23.616C150.657 23.3387 150.307 23.2 149.838 23.2C149.497 23.2 149.177 23.2773 148.878 23.432C148.579 23.5867 148.297 23.7973 148.03 24.064V30H146.054V21.792H147.262C147.518 21.792 147.686 21.912 147.766 22.152L147.902 22.8ZM160.093 23.392C160.04 23.4773 159.984 23.5387 159.925 23.576C159.867 23.608 159.792 23.624 159.701 23.624C159.605 23.624 159.501 23.5973 159.389 23.544C159.283 23.4907 159.157 23.432 159.013 23.368C158.869 23.2987 158.704 23.2373 158.517 23.184C158.336 23.1307 158.12 23.104 157.869 23.104C157.48 23.104 157.173 23.1867 156.949 23.352C156.731 23.5173 156.621 23.7333 156.621 24C156.621 24.176 156.677 24.3253 156.789 24.448C156.907 24.5653 157.059 24.6693 157.245 24.76C157.437 24.8507 157.653 24.9333 157.893 25.008C158.133 25.0773 158.376 25.1547 158.621 25.24C158.872 25.3253 159.117 25.424 159.357 25.536C159.597 25.6427 159.811 25.7813 159.997 25.952C160.189 26.1173 160.341 26.3173 160.453 26.552C160.571 26.7867 160.629 27.0693 160.629 27.4C160.629 27.7947 160.557 28.16 160.413 28.496C160.275 28.8267 160.067 29.1147 159.789 29.36C159.512 29.6 159.168 29.7893 158.757 29.928C158.352 30.0613 157.883 30.128 157.349 30.128C157.067 30.128 156.789 30.1013 156.517 30.048C156.251 30 155.992 29.9307 155.741 29.84C155.496 29.7493 155.267 29.6427 155.053 29.52C154.845 29.3973 154.661 29.264 154.501 29.12L154.957 28.368C155.016 28.2773 155.085 28.208 155.165 28.16C155.245 28.112 155.347 28.088 155.469 28.088C155.592 28.088 155.707 28.1227 155.813 28.192C155.925 28.2613 156.053 28.336 156.197 28.416C156.341 28.496 156.509 28.5707 156.701 28.64C156.899 28.7093 157.147 28.744 157.445 28.744C157.68 28.744 157.88 28.7173 158.045 28.664C158.216 28.6053 158.355 28.5307 158.461 28.44C158.573 28.3493 158.653 28.2453 158.701 28.128C158.755 28.0053 158.781 27.88 158.781 27.752C158.781 27.56 158.723 27.4027 158.605 27.28C158.493 27.1573 158.341 27.0507 158.149 26.96C157.963 26.8693 157.747 26.7893 157.501 26.72C157.261 26.6453 157.013 26.5653 156.757 26.48C156.507 26.3947 156.259 26.296 156.013 26.184C155.773 26.0667 155.557 25.92 155.365 25.744C155.179 25.568 155.027 25.352 154.909 25.096C154.797 24.84 154.741 24.5307 154.741 24.168C154.741 23.832 154.808 23.512 154.941 23.208C155.075 22.904 155.269 22.64 155.525 22.416C155.787 22.1867 156.109 22.0053 156.493 21.872C156.883 21.7333 157.331 21.664 157.837 21.664C158.403 21.664 158.917 21.7573 159.381 21.944C159.845 22.1307 160.232 22.376 160.541 22.68L160.093 23.392ZM164.093 27.872C164.317 28.144 164.559 28.336 164.821 28.448C165.087 28.56 165.375 28.616 165.685 28.616C165.983 28.616 166.253 28.56 166.493 28.448C166.733 28.336 166.935 28.1653 167.101 27.936C167.271 27.7067 167.402 27.4187 167.493 27.072C167.583 26.72 167.629 26.3067 167.629 25.832C167.629 25.352 167.589 24.9467 167.509 24.616C167.434 24.28 167.325 24.008 167.181 23.8C167.037 23.592 166.861 23.44 166.653 23.344C166.45 23.248 166.218 23.2 165.957 23.2C165.546 23.2 165.197 23.288 164.909 23.464C164.621 23.6347 164.349 23.8773 164.093 24.192V27.872ZM163.989 22.912C164.325 22.5333 164.706 22.2267 165.133 21.992C165.559 21.7573 166.061 21.64 166.637 21.64C167.085 21.64 167.493 21.7333 167.861 21.92C168.234 22.1067 168.554 22.3787 168.821 22.736C169.093 23.088 169.301 23.5253 169.445 24.048C169.594 24.5653 169.669 25.16 169.669 25.832C169.669 26.4453 169.586 27.0133 169.421 27.536C169.255 28.0587 169.018 28.512 168.709 28.896C168.405 29.28 168.034 29.5813 167.597 29.8C167.165 30.0133 166.679 30.12 166.141 30.12C165.682 30.12 165.29 30.0507 164.965 29.912C164.639 29.768 164.349 29.5707 164.093 29.32V32.68H162.117V21.792H163.325C163.581 21.792 163.749 21.912 163.829 22.152L163.989 22.912ZM175.546 26.496C174.976 26.5227 174.496 26.5733 174.106 26.648C173.717 26.7173 173.405 26.808 173.17 26.92C172.936 27.032 172.768 27.1627 172.666 27.312C172.565 27.4613 172.514 27.624 172.514 27.8C172.514 28.1467 172.616 28.3947 172.818 28.544C173.026 28.6933 173.296 28.768 173.626 28.768C174.032 28.768 174.381 28.696 174.674 28.552C174.973 28.4027 175.264 28.1787 175.546 27.88V26.496ZM171.018 22.936C171.962 22.072 173.098 21.64 174.426 21.64C174.906 21.64 175.336 21.72 175.714 21.88C176.093 22.0347 176.413 22.2533 176.674 22.536C176.936 22.8133 177.133 23.1467 177.266 23.536C177.405 23.9253 177.474 24.352 177.474 24.816V30H176.578C176.392 30 176.248 29.9733 176.146 29.92C176.045 29.8613 175.965 29.7467 175.906 29.576L175.73 28.984C175.522 29.1707 175.32 29.336 175.122 29.48C174.925 29.6187 174.72 29.736 174.506 29.832C174.293 29.928 174.064 30 173.818 30.048C173.578 30.1013 173.312 30.128 173.018 30.128C172.672 30.128 172.352 30.0827 172.058 29.992C171.765 29.896 171.512 29.7547 171.298 29.568C171.085 29.3813 170.92 29.1493 170.802 28.872C170.685 28.5947 170.626 28.272 170.626 27.904C170.626 27.696 170.661 27.4907 170.73 27.288C170.8 27.08 170.912 26.8827 171.066 26.696C171.226 26.5093 171.432 26.3333 171.682 26.168C171.933 26.0027 172.24 25.8587 172.602 25.736C172.97 25.6133 173.397 25.5147 173.882 25.44C174.368 25.36 174.922 25.312 175.546 25.296V24.816C175.546 24.2667 175.429 23.8613 175.194 23.6C174.96 23.3333 174.621 23.2 174.178 23.2C173.858 23.2 173.592 23.2373 173.378 23.312C173.17 23.3867 172.986 23.472 172.826 23.568C172.666 23.6587 172.52 23.7413 172.386 23.816C172.258 23.8907 172.114 23.928 171.954 23.928C171.816 23.928 171.698 23.8933 171.602 23.824C171.506 23.7493 171.429 23.664 171.37 23.568L171.018 22.936ZM181.199 23.216C181.455 22.7253 181.759 22.3413 182.111 22.064C182.463 21.7813 182.879 21.64 183.359 21.64C183.738 21.64 184.042 21.7227 184.271 21.888L184.143 23.368C184.117 23.464 184.077 23.5333 184.023 23.576C183.975 23.6133 183.909 23.632 183.823 23.632C183.743 23.632 183.623 23.6187 183.463 23.592C183.309 23.5653 183.157 23.552 183.007 23.552C182.789 23.552 182.594 23.584 182.423 23.648C182.253 23.712 182.098 23.8053 181.959 23.928C181.826 24.0453 181.706 24.1893 181.599 24.36C181.498 24.5307 181.402 24.7253 181.311 24.944V30H179.335V21.792H180.495C180.698 21.792 180.839 21.8293 180.919 21.904C180.999 21.9733 181.053 22.1013 181.079 22.288L181.199 23.216ZM190.358 24.952C190.358 24.696 190.32 24.456 190.246 24.232C190.176 24.0027 190.07 23.8027 189.926 23.632C189.782 23.4613 189.598 23.328 189.374 23.232C189.155 23.1307 188.899 23.08 188.606 23.08C188.035 23.08 187.584 23.2427 187.254 23.568C186.928 23.8933 186.72 24.3547 186.63 24.952H190.358ZM186.59 26.144C186.622 26.5653 186.696 26.9307 186.814 27.24C186.931 27.544 187.086 27.7973 187.278 28C187.47 28.1973 187.696 28.3467 187.958 28.448C188.224 28.544 188.518 28.592 188.838 28.592C189.158 28.592 189.432 28.5547 189.662 28.48C189.896 28.4053 190.099 28.3227 190.27 28.232C190.446 28.1413 190.598 28.0587 190.726 27.984C190.859 27.9093 190.987 27.872 191.11 27.872C191.275 27.872 191.398 27.9333 191.478 28.056L192.046 28.776C191.827 29.032 191.582 29.248 191.31 29.424C191.038 29.5947 190.752 29.7333 190.454 29.84C190.16 29.9413 189.859 30.0133 189.55 30.056C189.246 30.0987 188.95 30.12 188.662 30.12C188.091 30.12 187.56 30.0267 187.07 29.84C186.579 29.648 186.152 29.368 185.79 29C185.427 28.6267 185.142 28.168 184.934 27.624C184.726 27.0747 184.622 26.44 184.622 25.72C184.622 25.16 184.712 24.6347 184.894 24.144C185.075 23.648 185.334 23.2187 185.67 22.856C186.011 22.488 186.424 22.1973 186.91 21.984C187.4 21.7707 187.952 21.664 188.566 21.664C189.083 21.664 189.56 21.7467 189.998 21.912C190.435 22.0773 190.811 22.32 191.126 22.64C191.44 22.9547 191.686 23.344 191.862 23.808C192.043 24.2667 192.134 24.792 192.134 25.384C192.134 25.6827 192.102 25.8853 192.038 25.992C191.974 26.0933 191.851 26.144 191.67 26.144H186.59ZM195.465 22.8C195.63 22.6347 195.803 22.4827 195.985 22.344C196.171 22.2 196.366 22.08 196.569 21.984C196.777 21.8827 196.998 21.8053 197.233 21.752C197.467 21.6933 197.723 21.664 198.001 21.664C198.449 21.664 198.846 21.7413 199.193 21.896C199.539 22.0453 199.827 22.2587 200.057 22.536C200.291 22.808 200.467 23.136 200.585 23.52C200.707 23.8987 200.769 24.3173 200.769 24.776V30H198.793V24.776C198.793 24.2747 198.678 23.888 198.449 23.616C198.219 23.3387 197.87 23.2 197.401 23.2C197.059 23.2 196.739 23.2773 196.441 23.432C196.142 23.5867 195.859 23.7973 195.593 24.064V30H193.617V21.792H194.825C195.081 21.792 195.249 21.912 195.329 22.152L195.465 22.8ZM208.528 23.528C208.469 23.6027 208.411 23.6613 208.352 23.704C208.299 23.7467 208.219 23.768 208.112 23.768C208.011 23.768 207.912 23.7387 207.816 23.68C207.72 23.616 207.605 23.5467 207.472 23.472C207.339 23.392 207.179 23.3227 206.992 23.264C206.811 23.2 206.584 23.168 206.312 23.168C205.965 23.168 205.661 23.232 205.4 23.36C205.139 23.4827 204.92 23.6613 204.744 23.896C204.573 24.1307 204.445 24.416 204.36 24.752C204.275 25.0827 204.232 25.4587 204.232 25.88C204.232 26.3173 204.277 26.7067 204.368 27.048C204.464 27.3893 204.6 27.6773 204.776 27.912C204.952 28.1413 205.165 28.3173 205.416 28.44C205.667 28.5573 205.949 28.616 206.264 28.616C206.579 28.616 206.832 28.5787 207.024 28.504C207.221 28.424 207.387 28.3387 207.52 28.248C207.653 28.152 207.768 28.0667 207.864 27.992C207.965 27.912 208.077 27.872 208.2 27.872C208.36 27.872 208.48 27.9333 208.56 28.056L209.128 28.776C208.909 29.032 208.672 29.248 208.416 29.424C208.16 29.5947 207.893 29.7333 207.616 29.84C207.344 29.9413 207.061 30.0133 206.768 30.056C206.48 30.0987 206.192 30.12 205.904 30.12C205.397 30.12 204.92 30.0267 204.472 29.84C204.024 29.648 203.632 29.3707 203.296 29.008C202.96 28.6453 202.693 28.2027 202.496 27.68C202.304 27.152 202.208 26.552 202.208 25.88C202.208 25.2773 202.293 24.72 202.464 24.208C202.64 23.6907 202.896 23.2453 203.232 22.872C203.568 22.4933 203.984 22.1973 204.48 21.984C204.976 21.7707 205.547 21.664 206.192 21.664C206.805 21.664 207.341 21.7627 207.8 21.96C208.264 22.1573 208.68 22.44 209.048 22.808L208.528 23.528ZM212.415 21.792V30H210.431V21.792H212.415ZM212.687 19.4C212.687 19.5707 212.652 19.7307 212.583 19.88C212.513 20.0293 212.42 20.16 212.303 20.272C212.191 20.384 212.057 20.4747 211.903 20.544C211.748 20.608 211.583 20.64 211.407 20.64C211.236 20.64 211.073 20.608 210.919 20.544C210.769 20.4747 210.639 20.384 210.527 20.272C210.415 20.16 210.324 20.0293 210.255 19.88C210.191 19.7307 210.159 19.5707 210.159 19.4C210.159 19.224 210.191 19.0587 210.255 18.904C210.324 18.7493 210.415 18.616 210.527 18.504C210.639 18.392 210.769 18.304 210.919 18.24C211.073 18.1707 211.236 18.136 211.407 18.136C211.583 18.136 211.748 18.1707 211.903 18.24C212.057 18.304 212.191 18.392 212.303 18.504C212.42 18.616 212.513 18.7493 212.583 18.904C212.652 19.0587 212.687 19.224 212.687 19.4ZM218.765 26.496C218.194 26.5227 217.714 26.5733 217.325 26.648C216.936 26.7173 216.624 26.808 216.389 26.92C216.154 27.032 215.986 27.1627 215.885 27.312C215.784 27.4613 215.733 27.624 215.733 27.8C215.733 28.1467 215.834 28.3947 216.037 28.544C216.245 28.6933 216.514 28.768 216.845 28.768C217.25 28.768 217.6 28.696 217.893 28.552C218.192 28.4027 218.482 28.1787 218.765 27.88V26.496ZM214.237 22.936C215.181 22.072 216.317 21.64 217.645 21.64C218.125 21.64 218.554 21.72 218.933 21.88C219.312 22.0347 219.632 22.2533 219.893 22.536C220.154 22.8133 220.352 23.1467 220.485 23.536C220.624 23.9253 220.693 24.352 220.693 24.816V30H219.797C219.61 30 219.466 29.9733 219.365 29.92C219.264 29.8613 219.184 29.7467 219.125 29.576L218.949 28.984C218.741 29.1707 218.538 29.336 218.341 29.48C218.144 29.6187 217.938 29.736 217.725 29.832C217.512 29.928 217.282 30 217.037 30.048C216.797 30.1013 216.53 30.128 216.237 30.128C215.89 30.128 215.57 30.0827 215.277 29.992C214.984 29.896 214.73 29.7547 214.517 29.568C214.304 29.3813 214.138 29.1493 214.021 28.872C213.904 28.5947 213.845 28.272 213.845 27.904C213.845 27.696 213.88 27.4907 213.949 27.288C214.018 27.08 214.13 26.8827 214.285 26.696C214.445 26.5093 214.65 26.3333 214.901 26.168C215.152 26.0027 215.458 25.8587 215.821 25.736C216.189 25.6133 216.616 25.5147 217.101 25.44C217.586 25.36 218.141 25.312 218.765 25.296V24.816C218.765 24.2667 218.648 23.8613 218.413 23.6C218.178 23.3333 217.84 23.2 217.397 23.2C217.077 23.2 216.81 23.2373 216.597 23.312C216.389 23.3867 216.205 23.472 216.045 23.568C215.885 23.6587 215.738 23.7413 215.605 23.816C215.477 23.8907 215.333 23.928 215.173 23.928C215.034 23.928 214.917 23.8933 214.821 23.824C214.725 23.7493 214.648 23.664 214.589 23.568L214.237 22.936Z" fill="#0066AB"/>
</svg>
