<svg width="134" height="116" viewBox="0 0 134 116" fill="none" xmlns="http://www.w3.org/2000/svg">
<path d="M45.4102 48.7032C45.4102 47.8748 46.0817 47.2032 46.9102 47.2032H131C131.828 47.2032 132.5 47.8748 132.5 48.7032V99.4263C132.5 100.255 131.828 100.926 131 100.926H125.789C123.303 100.926 121.289 102.941 121.289 105.426V110.36C121.289 111.538 119.993 112.257 118.994 111.632L102.959 101.61C102.243 101.163 101.417 100.926 100.574 100.926H46.9102C46.0817 100.926 45.4102 100.255 45.4102 99.4263V48.7032Z" fill="#0066AB" stroke="#0066AB" stroke-width="3"/>
<rect x="54" y="57" width="69.4024" height="3.20319" fill="white"/>
<rect x="54" y="63.4064" width="69.4024" height="3.20319" fill="#16236E"/>
<rect x="54" y="69.8127" width="69.4024" height="3.20319" fill="white"/>
<rect x="54" y="76.2191" width="69.4024" height="3.20319" fill="white"/>
<rect x="54" y="82.6255" width="69.4024" height="3.20319" fill="#16236E"/>
<rect x="54" y="89.0319" width="69.4024" height="3.20319" fill="white"/>
<path d="M0 78.1355C1.11554 91.611 6.87915 94.044 8.9243 94.4183C9.48207 80.3814 15.0598 81.5043 17.8486 80.3814H65.259C72.51 80.9429 74.741 77.0125 74.741 74.2051V50.623L54.6614 29.2869H8.36653C1.67331 29.2869 0 33.7787 0 36.0246V78.1355Z" fill="#16236E"/>
<path d="M95.3882 63.8903L95.4431 63.8681L95.496 63.8416C106.229 58.4753 112.033 52.2615 115.113 45.9833C118.179 39.7339 118.458 33.5895 118.458 28.581C118.458 20.932 114.275 14.1273 107.753 9.28786C101.23 4.44831 92.2892 1.5 82.4788 1.5C72.6683 1.5 63.7277 4.44831 57.2048 9.28786C50.6821 14.1273 46.5 20.932 46.5 28.581C46.5 36.23 50.6821 43.0347 57.2048 47.8742C63.7277 52.7137 72.6683 55.662 82.4788 55.662C86.6107 55.662 88.103 56.5038 88.6292 57.1315C89.1171 57.7137 89.1491 58.5603 88.8708 59.9011C88.8316 60.0897 88.7774 60.3233 88.72 60.5708C88.6208 60.9982 88.512 61.4669 88.4547 61.8164C88.4028 62.133 88.3604 62.5089 88.3877 62.8893C88.4152 63.2718 88.5211 63.7699 88.8665 64.2199C89.6184 65.1995 90.8298 65.1865 91.6648 65.0605C92.6002 64.9193 93.8215 64.5248 95.3882 63.8903Z" fill="white" stroke="#16236E" stroke-width="3"/>
<rect x="61" y="18" width="45.766" height="2.11228" fill="#0066AB"/>
<rect x="61" y="22.2246" width="45.766" height="2.11228" fill="#16236E"/>
<rect x="61" y="26.4491" width="45.766" height="2.11228" fill="#0066AB"/>
<rect x="61" y="30.6736" width="45.766" height="2.11228" fill="#0066AB"/>
<rect x="61" y="34.8982" width="45.766" height="2.11228" fill="#16236E"/>
<rect x="61" y="39.1227" width="45.766" height="2.11228" fill="#0066AB"/>
</svg>
