<svg width="222" height="183" viewBox="0 0 222 183" fill="none" xmlns="http://www.w3.org/2000/svg">
<g clip-path="url(#clip0_122_264)">
<rect width="222" height="183" fill="white"/>
<path d="M101.488 165.355L100.525 167.281L113.287 172.819L118.344 175.468L126.05 179.803L131.107 182.692L132.793 184.137L135.682 185.1L138.572 186.064L141.702 188.953H144.351L145.555 190.398L146.759 191.602H147.963H149.408V193.047V194.492V196.659H151.575L153.261 200.753V202.197L154.706 200.753L156.873 201.234L157.595 204.605L162.652 206.773V208.699H164.578L165.782 212.07L168.191 213.997L169.395 215.201V217.127L170.117 218.331L171.08 220.017L170.117 221.221V222.425L171.08 225.074L172.043 226.518L172.766 228.686L173.247 231.094L172.043 230.612H169.395V233.261V235.91V236.632L168.191 238.077V239.281V242.652L166.264 242.171L165.782 246.023L166.264 248.913L164.578 250.117L166.264 252.043L165.782 254.933L166.264 257.1L169.395 257.582H173.247L173.729 255.656L171.08 254.211L172.043 252.043L174.933 251.562H176.859V248.431L179.267 246.505L182.639 242.171V239.763V237.355L182.157 235.91L181.675 233.261L179.99 231.816L181.675 230.612V228.686V226.037L179.99 220.017V218.331L181.675 217.127H184.806H187.455L192.03 215.682L192.993 214.478L195.16 212.793L196.846 212.07L198.772 209.903L201.662 210.625L207.441 207.495L208.164 204.605L209.127 202.197L208.164 200.271H206.237L205.274 198.826H203.107L206.237 193.769L205.274 192.084V188.953H208.164V186.064L209.127 185.1L212.017 184.137L212.739 181.97L212.017 179.803L212.739 175.95L215.388 174.264L217.314 172.579L216.592 169.448L218.277 168.726L219 166.799V163.428L218.277 152.833H216.592L212.739 150.666L210.813 151.388V149.221L209.849 147.054H209.127V144.886L206.237 141.274V136.699L201.903 137.662L197.809 133.569L195.16 129.234L197.809 125.14L194.197 122.492L191.789 119.843L187.696 119.12L182.639 123.696L178.063 125.863L175.415 128.03L169.395 126.585L167.95 129.234H163.134L159.762 130.92L153.02 131.642L147.963 132.605L144.351 125.14L141.221 121.047L138.572 119.12L134.478 113.1L131.588 109.488L130.625 111.415V115.027L129.18 119.12V121.769H125.568L123.883 125.14H120.512L119.308 127.308L115.936 125.863L109.675 128.03L108.712 127.308L105.823 125.863H104.137L102.692 128.03H102.211V130.92L99.8025 133.087L98.3577 134.291H95.9497V135.977L94.5049 141.515L96.9129 142.237L94.5049 146.572H97.3945L96.9129 149.221L100.525 151.629L99.3209 155.963H100.525V164.15L101.488 165.355Z" fill="#0066AB"/>
<path d="M96.9131 165.355L77.8897 159.094H77.6489H75L74.2776 158.131L75.9633 156.204L74.2776 155.723V154.278L73.3144 153.315L73.796 150.184L75.4816 149.702V148.017L73.3144 145.85V144.886L77.1673 144.405L76.9265 142.96L77.1673 141.034L75.9633 135.736L75 133.81L73.0736 133.328L69.4616 130.197L67.5352 128.271L69.9432 127.067L72.8328 126.585V125.141L74.2776 126.104L75.2408 125.141L79.5753 126.585L80.7793 125.141H82.2241V123.696L81.0201 121.047L82.7057 119.121L80.7793 118.157L83.4281 115.99L81.9833 114.545L84.8729 111.656L84.6321 110.211L81.9833 108.766L82.9465 107.562L85.1138 109.007L87.281 109.488L89.2074 110.211V112.619H88.485L87.7626 113.823L88.7258 114.304L88.2442 115.749L89.689 116.231H91.3746L91.8562 114.786L93.5418 113.823L94.0235 115.509L95.4683 115.749V114.786L97.1539 113.341L99.0803 112.619L99.8027 113.341L98.5987 114.304L98.1171 116.472L98.3579 118.157L103.415 124.9L101.488 124.659L100.284 124.9V126.345H98.5987V128.271L97.3947 130.197L95.9499 131.401L94.5051 132.124V133.328L93.5418 133.569L92.5786 133.087L92.3378 135.495L92.097 136.94L92.5786 138.626V139.83L91.8562 140.311L91.3746 141.034L91.8562 142.238L91.3746 142.96L91.8562 143.442L93.5418 143.201V144.405C93.4616 144.565 93.1566 144.983 92.5786 145.368C92.0007 145.753 92.3378 146.652 92.5786 147.054L94.9867 150.425V151.629H96.9131L97.8763 153.796L95.9499 159.094L96.9131 160.298L97.8763 162.465C98.6469 165.162 97.5552 165.515 96.9131 165.355Z" fill="#0066AB"/>
<path d="M45.8634 114.064C45.8634 114.834 43.6159 115.829 42.4922 116.231L46.8266 118.157L53.3283 120.565L58.8668 122.973L63.6828 125.863L64.4052 125.14L65.3684 123.696L66.3317 124.9L67.7765 123.696L69.4621 122.973H71.3885V121.047H73.7965L75.4822 120.565L76.4454 121.528H78.3718L77.4086 119.843V118.157L78.3718 116.231L77.4086 114.786H79.335L80.539 114.064L77.4086 112.619L79.335 111.656L80.539 109.488H82.2246L81.2614 107.803H79.335V106.599L76.4454 104.431V103.468L77.4086 102.023L78.3718 103L79.335 102.023L77.4086 98.4114L75.4822 102.023H73.3149H71.3885H69.4621L67.7765 100.338L64.8868 101.06L63.6828 100.338H59.83L54.7731 101.06L53.3283 102.023V103.468L54.7731 104.431L51.6427 106.599V110.692H45.8634V114.064Z" fill="#16236E"/>
<path d="M94.9866 110.933L94.2642 111.896H97.3947L99.3211 109.729L100.043 111.174H101.488V109.97L104.137 108.525L106.304 108.043L106.545 109.97L104.378 110.451L102.452 114.064C101.488 115.219 102.773 118.077 103.656 119.12L108.472 122.973L113.528 121.528L117.863 122.251L119.308 120.565L120.512 121.528C122.438 123.455 123.401 122.331 123.642 121.528L124.124 118.88L127.013 119.12V116.472L128.94 115.268L127.736 113.341L129.421 108.525V107.321L127.977 106.117L127.736 101.06L128.458 100.819L130.385 104.431C131.926 104.431 134.237 108.445 135.201 110.451C135.779 112.763 139.776 116.552 141.702 118.157C144.399 119.12 147.963 124.819 149.408 127.548L151.094 126.344H153.502L157.114 125.381H164.097L165.783 123.696L169.635 123.214L172.525 121.769C176.185 124.274 180.151 121.047 181.676 119.12C187.07 117.194 188.739 114.144 188.9 112.86L186.732 112.137V110.451L186.01 109.247L188.9 105.876L189.622 103.709L193.957 104.431L197.569 103.709V101.06H199.254L204.311 103.709H205.756L206.478 104.913L211.776 107.08L208.645 103.709L206.96 103.227L205.756 100.097L204.311 99.3746V98.1705L199.736 93.1137L196.846 92.6321V90.9465L194.438 90.4649L188.418 86.612L186.732 89.5016L183.602 89.02V90.4649L181.194 91.4281L182.398 79.3879V76.2575V74.5719L183.602 72.8863H186.01L187.455 71.923L190.585 71.2006L191.549 71.923H193.957L195.161 71.2006L197.569 68.5518H198.532L199.736 67.8294L201.181 67.3478L202.625 66.8662L203.348 65.6622L205.274 64.2174V62.7726V60.8461L206.478 60.1237L204.311 57.2341H202.625L201.662 55.5485L196.846 51.4548L197.569 48.0836H195.161L193.957 46.1572L192.512 48.0836L191.549 45.6756L187.455 43.7491V40.3779L184.324 38.9331L182.398 40.3779L181.194 38.4515H179.508L176.137 35.321L173.488 38.4515V40.3779L168.431 42.5451L166.505 46.1572L162.893 47.3612L162.411 49.0468L157.114 51.4548L154.706 54.5853L147.963 54.1037L144.592 58.1973V60.1237L142.666 60.8461L137.127 58.1973L134.96 60.1237L127.013 64.2174H125.809L122.92 66.8662H120.993V67.8294L117.622 66.1438L114.732 66.8662L113.769 69.2742L112.806 67.8294V65.6622L109.916 62.2909H107.99V64.2174L105.582 65.6622V67.8294L103.174 69.2742L105.1 71.923L100.766 79.8695L97.8763 81.796L98.3579 84.204L103.174 85.1672L101.488 87.0936L102.452 88.0568L107.508 87.0936L108.472 89.5016L105.1 91.6689V93.5953L101.248 94.5585L99.0803 98.1705L91.3746 98.893L92.5786 99.8562L91.3746 100.579L94.2642 101.06L98.3579 101.783L99.0803 103.227L98.3579 103.95L96.1906 105.154L91.1338 106.117V107.321L94.9866 106.117V109.007L94.2642 109.488L94.9866 110.933Z" fill="#16236E"/>
<path d="M77.4211 97.1513H79.7024L79.9559 95.1457L80.9698 94.6443V95.6471L81.9837 96.1485L83.5045 98.6555V100.912H81.9837V99.4076L80.9698 99.6583L81.2232 103.168L83.5045 104.672L86.2928 104.422L87.3067 103.419H88.0671L89.8414 104.672H92.6297L93.1366 103.669L94.404 103.419L93.1366 102.416L88.5741 102.165C87.3574 101.564 88.0671 100.745 88.5741 100.41L89.588 99.6583V98.6555C88.5741 97.8533 89.1655 97.1513 89.588 96.9006L94.1505 97.1513L97.6992 93.1401L100.994 92.6387V91.1345L103.783 90.1317L103.529 89.3797L100.487 89.6303V88.8783L99.4735 87.6248L99.2201 85.8699L94.1505 84.115L93.1366 81.1066L95.1644 79.101L100.234 70.0759L98.7131 66.0647L101.501 65.5633L102.008 64.0591L105.557 60.8L105.81 58.5437L111.387 55.2846L108.092 52.2763L108.599 47.2623L109.866 45.5074L109.359 44.0032L109.866 42.7497L111.387 40.9948L111.894 41.9976L113.668 39.4906L115.696 38.7385V37.7357L114.175 35.2287L115.443 33.4739L114.682 32.2204L112.908 32.9725L107.585 33.4739L103.022 36.4822L99.4735 34.978L97.9527 31.4683L95.6714 33.4739L95.4179 36.4822C94.3195 37.0672 92.2241 38.7887 92.6297 40.9948C93.0352 43.201 91.9537 44.0868 91.3623 44.2539C85.2789 46.6606 84.4339 50.2707 84.7719 51.7749L86.0393 53.5297L84.7719 53.7804V55.0339L82.2371 55.786V57.5409C81.5612 57.7081 80.2093 58.3432 80.2093 59.5465C80.2093 60.7499 77.8436 61.2178 76.6607 61.3014L77.1676 65.3126L75.3933 68.5717L72.3516 70.3266L72.8585 71.58V73.5856L72.605 74.3377V76.594C73.4162 77.7974 73.112 78.4325 72.8585 78.5996L72.3516 83.6136L73.8724 84.8671L74.3794 86.8727L76.4072 88.1262V90.1317L77.928 92.1373L76.6607 93.3908L76.1537 95.1457L77.4211 95.6471V97.1513Z" fill="#0066AB"/>
<path d="M46.3537 63.7368L43.4145 60.6067C43.0062 60.2857 42.4347 59.4028 43.4145 58.4397C44.0676 57.9582 45.4229 56.1283 45.6189 52.6611V51.698H45.129C45.0474 51.2165 44.9821 50.1089 45.374 49.531C45.5373 49.2903 45.8638 48.5198 45.8638 47.364C45.8638 45.6786 45.6679 41.778 44.8841 39.6592C44.5575 39.0172 43.5614 37.733 42.1898 37.733C42.1081 37.3317 42.1408 36.3847 42.9246 35.8068C43.0062 35.0845 42.7287 33.7361 40.9651 34.1214L39.9854 34.6029C39.6588 33.9609 38.9566 32.6767 38.7607 32.6767C37.8626 32.6767 36.2623 32.147 37.0461 30.0282C37.3727 29.9479 37.9769 29.643 37.7809 29.0651L36.3113 28.3428L36.8012 27.3797C36.9645 27.2191 37.0951 26.7055 36.3113 25.935L33.3721 22.8049H25.2892C22.1867 24.9719 14.9039 28.4391 10.593 24.9719L12.7974 21.8418C12.8791 21.4405 12.9934 20.5898 12.7974 20.3972C12.4709 19.7551 12.1116 18.3265 13.2873 17.7486L11.5728 16.304L11.3278 14.6185L6.67404 10.7661C6.67404 10.3648 6.57607 9.46593 6.18417 9.08069L4.95949 7.39526L6.67404 5.46906L8.3886 7.39526L11.8177 7.87682L14.2671 5.46906L14.0221 -0.309563C14.1038 -0.95163 14.512 -2.33208 15.4917 -2.71732V-4.16198C13.6955 -6.48948 9.76024 -11.4816 8.3886 -12.8299C6.91898 -14.4351 3.7838 -17.5973 3 -17.4046C4.06139 -17.8862 6.13518 -19.0419 5.93923 -19.8124L4.95949 -21.7386L6.91898 -24.1464C7.4905 -23.9056 8.68252 -23.6167 8.87847 -24.3871C9.69492 -26.3133 12.0626 -30.1658 15.0019 -30.1658H21.1253L21.8601 -28.4803L24.5544 -30.8881C25.6974 -30.7276 28.0325 -30.6473 28.2284 -31.6104C28.3917 -32.734 27.8855 -35.222 24.5544 -36.1852V-38.3521L23.8196 -39.3152H22.5949C22.8398 -40.1178 23.8196 -41.723 25.7791 -41.723L29.4531 -40.5191C30.3512 -40.2783 32.2944 -40.471 32.8822 -43.1677C33.4701 -45.8643 35.9031 -47.0201 37.0461 -47.2608C38.4341 -47.7424 41.2101 -49.9575 41.2101 -54.9657L41.455 -58.5773C42.0265 -59.4601 43.4145 -61.1777 44.3942 -60.9851C45.374 -60.7924 46.1088 -59.7812 46.3537 -59.2996C47.4151 -59.2194 49.6359 -59.1552 50.0278 -59.5404C50.5176 -60.022 51.7423 -59.0588 55.1714 -55.688C55.5796 -55.367 56.5431 -54.9175 57.1309 -55.688L62.7644 -51.1132C63.4992 -50.3107 65.4587 -48.8981 67.4182 -49.6686C66.8467 -48.545 65.3118 -46.1533 63.7442 -45.5754V-42.2045L57.8657 -36.6667C59.172 -34.4997 61.8827 -29.636 62.2746 -27.5172C62.6665 -25.3984 65.2138 -26.9554 66.4385 -27.9988L67.4182 -26.3133C68.398 -26.3133 70.6514 -26.1207 71.8271 -25.3502C73.0028 -24.5798 74.4397 -25.6713 75.0113 -26.3133L75.7461 -27.9988L77.2157 -27.0357H79.1752L79.665 -23.424H78.4404C78.1954 -23.2635 77.8525 -22.798 78.4404 -22.2201L80.8897 -18.8493C81.1347 -18.448 81.2326 -17.4046 79.665 -16.4415C78.522 -15.6389 76.5788 -13.8411 77.9505 -13.0707C78.4404 -12.8299 79.665 -12.4446 80.6448 -12.8299L82.3593 -13.5522L87.7479 -9.21825L88.2378 -7.7736C89.7074 -6.64998 93.5284 -4.64351 97.0555 -5.60662C98.1169 -6.00791 100.583 -7.29205 101.954 -9.21825C102.362 -9.86032 102.934 -11.1445 101.954 -11.1445C101.301 -11.305 100.828 -12.1076 104.159 -14.0338L110.527 -14.2745L111.507 -13.0707L112.731 -14.2745L116.895 -9.21825C117.875 -8.65644 121.108 -8.25515 126.203 -11.1445C126.774 -11.626 129.485 -12.0594 135.755 -9.94058C136.654 -9.45903 138.548 -8.64039 138.94 -9.21825C139.429 -9.94058 140.409 -8.01438 139.185 -7.53283C139.002 -7.46117 138.868 -7.41061 138.772 -7.37682C137.345 -6.0337 134.832 -3.40231 135.021 -2.47653C134.367 -1.43317 132.473 0.653553 130.122 0.653553C128.816 0.974586 126.35 2.14636 126.938 4.26519C126.203 5.70985 123.362 8.11761 117.875 6.1914C116.814 5.87036 114.544 5.27645 113.956 5.46907C113.63 6.1914 112.682 7.25081 111.507 5.70985C110.2 5.54933 107.539 5.42091 107.343 6.1914C106.69 6.99399 105.677 9.03255 106.853 10.7661C108.078 12.3713 109.792 15.9187 106.853 17.2671C105.71 18.0697 102.297 19.7712 97.7903 20.1564C97.4637 20.1564 97.0065 21.0232 97.7903 24.4904C97.3004 25.7745 95.6349 28.5835 92.8916 29.5466C92.565 29.5466 92.0098 29.7874 92.4017 30.7505C92.6467 31.4729 92.4997 33.2546 89.9524 34.6029C89.6258 34.6832 89.0216 35.1808 89.2176 36.5292C89.6258 37.8935 89.5605 41.0076 86.0334 42.5485C84.3188 43.1104 81.0857 44.9563 81.8695 47.8456V50.2534L79.665 50.9757V52.4203C79.0935 52.4203 77.9505 52.6611 77.9505 53.6242C77.9505 54.9886 77.1177 57.7174 73.7866 57.7174C73.1334 57.9582 72.317 58.825 74.2764 60.366C74.6847 61.4093 74.4724 63.7368 70.3575 64.6999C69.8676 64.8604 69.0838 65.4222 69.8676 66.3853L70.3575 67.1077C68.9695 66.8669 66.0956 66.8669 65.7037 68.7931C65.4587 69.3549 64.6749 70.1414 63.4992 68.7931L60.3151 72.8863L57.1309 65.663L55.6613 65.4222L53 51.698C52 53 48.5091 63.1589 46.3537 63.7368Z" fill="#16236E"/>
<path d="M52.6047 57.4749C52.0268 61.1351 48.3505 65.9029 46.5846 67.8294L44.899 69.2742L39.6014 69.0334L34.3037 66.3846V68.0702L37.9158 70.9598L38.879 75.5351L39.3606 77.9431H40.8054V80.8327L39.6014 82.0367V83.7223L38.879 84.6856L39.6014 85.408L43.4542 85.8896L49.4743 89.5016C50.277 90.1438 51.5933 91.4762 50.4375 91.6688C49.2816 91.8615 49.1532 93.0334 49.2335 93.5953L47.7887 96.0033C46.6328 98.5076 48.4308 98.8126 49.4743 98.6521C51.9786 98.4595 54.6917 96.9665 55.7351 96.2441C57.0836 97.0147 59.3472 96.2441 60.3104 95.7625L61.2736 96.7257L64.1632 96.4849C64.1632 96.5652 64.2596 96.822 64.6448 97.2073C65.0301 97.5926 67.0529 97.3678 68.0161 97.2073C69.3646 98.3632 70.8255 98.01 71.3873 97.6889L74.277 98.1705C73.8756 98.01 73.3619 97.7852 74.5178 98.1705C75.6736 98.5558 76.1231 96.5652 76.2034 95.5217C76.0428 95.6019 75.4328 95.7625 74.277 95.7625C73.1211 95.7625 73.4743 94.7993 73.7953 94.3177C72.8321 94.719 71.291 94.9919 72.8321 92.8728C74.3733 90.7538 73.4743 89.903 72.8321 89.7424L71.8689 86.612L70.4241 85.8896V84.4448L68.7385 83.7223L69.2201 80.8327L68.7385 79.1471L69.2201 77.4615L68.4977 74.331C68.8188 72.9665 69.4127 70.3819 69.2201 70.9598C69.0275 71.5377 66.4107 72.4849 65.1265 72.8862L64.6448 73.8494C64.404 74.01 63.7298 74.2347 62.9592 73.8494C62.1887 73.4642 60.3907 75.7759 59.588 76.9799C58.8656 77.4615 57.5652 78.0394 58.1432 76.4983C58.7211 74.9571 57.9024 74.4113 57.4208 74.331C57.0997 73.8494 56.4576 72.5009 56.4576 70.9598C56.4576 69.4187 55.1733 69.3545 54.5311 69.515C53.1826 69.1297 52.685 61.3277 52.6047 57.4749Z" fill="#16236E"/>
</g>
<defs>
<clipPath id="clip0_122_264">
<rect width="222" height="183" fill="white"/>
</clipPath>
</defs>
</svg>
