<svg width="38" height="38" viewBox="0 0 38 38" fill="none" xmlns="http://www.w3.org/2000/svg">
<path fill-rule="evenodd" clip-rule="evenodd" d="M0 19C0 29.4934 8.50659 38 19 38C29.4934 38 38 29.4934 38 19C38 8.50659 29.4934 0 19 0C8.50659 0 0 8.50659 0 19ZM30.9242 18.2729C30.9217 24.5007 25.8554 29.5682 19.6263 29.5707H19.6216C17.7307 29.5701 15.8728 29.0957 14.2226 28.1956L8.23333 29.7667L9.83615 23.9122C8.84746 22.1987 8.32721 20.2552 8.32806 18.2639C8.33053 12.0347 13.3988 6.96667 19.6262 6.96667C22.6485 6.96797 25.4852 8.14456 27.6182 10.2801C29.7513 12.4156 30.9254 15.2541 30.9242 18.2729Z" fill="white"/>
<path fill-rule="evenodd" clip-rule="evenodd" d="M10.9457 27.0826L14.4998 26.1503L14.8427 26.3538C16.2845 27.2093 17.9372 27.662 19.6222 27.6627H19.626C24.8018 27.6627 29.0143 23.4501 29.0163 18.2722C29.0173 15.763 28.0415 13.4038 26.2686 11.6288C24.4956 9.8538 22.1379 8.87581 19.6297 8.87494C14.45 8.87494 10.2374 13.0871 10.2354 18.2646C10.2346 20.039 10.7311 21.767 11.6711 23.2621L11.8944 23.6173L10.9457 27.0826ZM24.9312 20.7053C25.1281 20.8005 25.2611 20.8647 25.3179 20.9595C25.3884 21.0772 25.3884 21.6424 25.1533 22.3019C24.918 22.9613 23.7902 23.5632 23.2477 23.6442C22.7614 23.7169 22.1459 23.7472 21.4697 23.5323C21.0597 23.4022 20.5339 23.2285 19.8604 22.9377C17.2139 21.7949 15.4254 19.2299 15.0874 18.7451C15.0637 18.7112 15.0471 18.6874 15.0379 18.6751L15.0356 18.672C14.8862 18.4727 13.8852 17.1371 13.8852 15.7548C13.8852 14.4545 14.524 13.7729 14.818 13.4591C14.8381 13.4377 14.8566 13.4179 14.8732 13.3998C15.132 13.1171 15.4378 13.0465 15.626 13.0465C15.8142 13.0465 16.0026 13.0482 16.1671 13.0565C16.1874 13.0575 16.2085 13.0574 16.2303 13.0573C16.3948 13.0563 16.5999 13.0551 16.8022 13.5411C16.8801 13.7281 16.994 14.0054 17.1141 14.2979C17.357 14.8892 17.6254 15.5426 17.6726 15.6372C17.7432 15.7785 17.7902 15.9433 17.6961 16.1318C17.682 16.16 17.6689 16.1867 17.6565 16.2122C17.5858 16.3565 17.5338 16.4626 17.4139 16.6027C17.3667 16.6577 17.3179 16.7171 17.2692 16.7765C17.1721 16.8947 17.075 17.013 16.9904 17.0973C16.8491 17.238 16.702 17.3908 16.8666 17.6734C17.0313 17.956 17.5978 18.8804 18.4371 19.629C19.3392 20.4336 20.1233 20.7737 20.5207 20.9461C20.5983 20.9798 20.6612 21.0071 20.7073 21.0301C20.9895 21.1715 21.1542 21.1478 21.3188 20.9595C21.4835 20.7711 22.0245 20.1351 22.2127 19.8526C22.4009 19.5701 22.5891 19.6171 22.8478 19.7113C23.1067 19.8056 24.4946 20.4884 24.7769 20.6297C24.832 20.6573 24.8835 20.6822 24.9312 20.7053Z" fill="white"/>
</svg>
