<svg width="38" height="38" viewBox="0 0 38 38" fill="none" xmlns="http://www.w3.org/2000/svg">
<path fill-rule="evenodd" clip-rule="evenodd" d="M19 0C8.50659 0 0 8.50659 0 19C0 29.4934 8.50659 38 19 38C29.4934 38 38 29.4934 38 19C38 8.50659 29.4934 0 19 0ZM26.9179 12.4682C27.79 12.7075 28.4767 13.4126 28.7098 14.308C29.1333 15.9307 29.1333 19.3167 29.1333 19.3167C29.1333 19.3167 29.1333 22.7025 28.7098 24.3254C28.4767 25.2207 27.79 25.9258 26.9179 26.1652C25.3376 26.6 19 26.6 19 26.6C19 26.6 12.6624 26.6 11.082 26.1652C10.2099 25.9258 9.52315 25.2207 9.29008 24.3254C8.86667 22.7025 8.86667 19.3167 8.86667 19.3167C8.86667 19.3167 8.86667 15.9307 9.29008 14.308C9.52315 13.4126 10.2099 12.7075 11.082 12.4682C12.6624 12.0333 19 12.0333 19 12.0333C19 12.0333 25.3376 12.0333 26.9179 12.4682Z" fill="white"/>
<path d="M17.0996 22.8V16.4667L22.1663 19.6335L17.0996 22.8Z" fill="white"/>
</svg>
