<svg width="204" height="165" viewBox="0 0 204 165" fill="none" xmlns="http://www.w3.org/2000/svg">
<rect x="1" width="201.924" height="164" fill="white"/>
<path d="M73.3113 42.077H76.9833V57.413H85.3533V60.437H73.3113V42.077ZM90.9843 60.437H87.3123V42.077H90.9843V60.437ZM98.8375 42.077L101.592 48.071L103.671 52.742H103.725L105.723 48.071L108.369 42.077H113.067V60.437H109.395V52.067L109.476 47.45H109.422L104.751 57.521H102.213L97.5415 47.45H97.4875L97.5685 52.067V60.437H94.2205V42.077H98.8375ZM127.744 60.437L126.367 56.063H119.995L118.618 60.437H115.027L121.102 41.942H125.53L131.524 60.437H127.744ZM123.262 45.614H123.181L120.643 53.363H125.719L123.262 45.614Z" fill="#0066AB"/>
<path d="M31.027 70.1235V54.9556L29.2072 52.7251V50.4945L31.9369 47.8178L32.8468 38.0033L33.7568 47.8178H36.4865V39.3417H34.6667V37.5572H36.4865V35.7728L41.491 32.2039L42.4009 22.8355L43.3108 32.2039L48.7703 35.7728V37.5572H50.5901V39.3417H48.7703V47.8178H51.5L52.8649 37.1111L53.7748 48.2639L55.5946 50.9406V53.1712L54.2297 54.9556V70.1235L56.0495 71.4618V95.998H81.527L85.1667 92.4291V87.0758L86.9865 91.5369L91.536 87.5219L96.0856 85.7374L100.18 78.5996L101.09 74.5846L102 79.4919L106.095 86.6297L109.279 87.0758L115.649 92.4291L117.014 86.6297V93.3214L118.378 93.7675L120.653 97.3364L147.041 96.8903V71.9079L148.86 70.1235V54.5095L147.495 52.7251V50.0484L150.225 46.4795V34.8805L151.59 47.3717L154.32 47.8178V38.8956L152.5 38.4494V37.5572L154.32 36.665V35.3266L159.779 31.7577L160.689 21.051L162.054 31.7577L167.059 35.3266V37.1111H168.878V38.8956L167.059 39.3417V47.8178L169.788 47.3717L170.698 38.0033L171.608 47.8178L174.338 50.0484V52.7251L172.518 54.5095V70.1235L174.338 71.9079V96.8903L177.068 100.013V104.474L174.338 106.259V120.088L177.068 123.657V153.993H183.437V128.118L185.257 124.549V112.058L184.347 111.166V108.489L186.167 106.705L187.077 97.7825L187.986 102.244H189.806V95.1058H188.441L192.991 89.7525L197.541 95.1058H196.631V102.244H198.45L199.36 97.3364L200.27 106.705L202.09 108.935V111.166L201.18 112.058V124.995L203 128.118L202.545 163.807H162.054H40.1261H1V126.334L1.90991 125.888L2.81982 123.211V110.72L1.90991 109.828V107.597L3.72973 105.813L4.63964 97.7825L5.54955 101.351H6.91441L7.36937 94.2136H6.0045L10.5541 88.8602L15.1036 94.2136H13.7387V101.351L15.5586 100.905L16.4685 97.3364L17.3784 105.813L19.1982 108.043V110.274L18.2883 111.166V123.211L20.1081 126.78L20.5631 152.208H26.4775V122.319L29.2072 118.304V105.813L26.4775 103.582V99.1208L29.2072 95.998V71.9079L31.027 70.1235Z" fill="#16236E"/>
<path d="M193.272 89.5071L197.905 94.9578H196.515V102.225H198.368L199.294 95.8662L200.221 106.768L201.147 107.676L202.074 108.585V111.31L201.147 112.218V124.937H201.61V126.299H202.074V127.662H203V164H1V133.918M193.272 89.5071V86.3275M193.272 89.5071L188.64 94.9578H190.03V102.225H188.177L187.25 95.8662L186.324 106.768L185.397 107.676L184.471 108.585V111.31L185.397 112.218V124.937H184.934V126.299H184.471V127.662H183.544V154.007H177.059V123.12H176.133V122.211H175.67V121.303H175.206V120.394H174.28V106.768L177.059 104.951V100.408L174.28 97.2289V72.2466L172.427 70.4297V54.986L174.28 53.1691V50.4438L171.501 47.7184L171.037 32.729L169.648 47.7184H166.868V39.0882H168.721V37.2713H166.868V35.4544L161.773 31.8206L160.846 16.377L159.92 31.8206L154.361 35.4544V37.2713H152.508V39.0882H154.361V47.7184H151.582L150.192 32.729L149.729 47.7184L147.413 50.4438V53.1691L148.802 54.986V70.4297L146.95 72.2466V97.2289H120.546C119.928 96.0176 118.415 93.5951 117.303 93.5951V85.4191L115.45 92.6867C113.752 90.5669 109.521 86.4184 106.186 86.7817L102.017 79.5141L101.09 72.7008" stroke="#16236E"/>
<path d="M10.5541 88.8604L6.0045 94.2137H7.36937V101.352H5.54955L4.63964 95.1059L3.72973 105.813L2.81982 106.705L1.90991 107.597V110.274L2.81982 111.166V123.657H2.36486V124.996H1.90991V126.334H1V130.795V133.918M10.5541 88.8604V85.7376M10.5541 88.8604L15.1036 94.2137H13.7387V101.352H15.5586L16.4685 95.1059L17.3784 105.813L18.2883 106.705L19.1982 107.597V110.274L18.2883 111.166V123.657H18.7432V124.996H19.1982V126.334H20.1081V152.208H26.4775V121.873H27.3874V120.981H27.8423V120.088H28.2973V119.196H29.2072V105.813L26.4775 104.028V99.5671L29.2072 96.4443V71.9081L31.027 70.1236V54.9558L29.2072 53.1713V50.4946L31.9369 47.8179L32.3919 33.0962L33.7568 47.8179H36.4865V39.3418H34.6667V37.5573H36.4865V35.7729L41.491 32.204L42.4009 17.0361L43.3108 32.204L48.7703 35.7729V37.5573H50.5901V39.3418H48.7703V47.8179H51.5L52.8649 33.0962L53.3198 47.8179L55.5946 50.4946V53.1713L54.2297 54.9558V70.1236L56.0495 71.9081V96.4443H81.982C82.5886 95.2546 84.0748 92.8754 85.1667 92.8754V84.8453L86.9865 91.9832C88.6547 89.9013 92.8099 85.8268 96.0856 86.1837L100.18 79.0459L101.09 72.3542" stroke="#16236E"/>
<path d="M92.9004 138.334C92.9004 133.56 96.7705 129.69 101.545 129.69C106.319 129.69 110.189 133.56 110.189 138.334V151.995H92.9004V138.334Z" fill="white"/>
<path d="M94.7207 102.155C94.7207 98.6368 97.5724 95.7852 101.09 95.7852C104.608 95.7852 107.459 98.6368 107.459 102.155V110.953H94.7207V102.155Z" fill="#0066AB"/>
<path d="M38.3062 73.5679C38.3062 71.0552 40.3431 69.0183 42.8557 69.0183C45.3683 69.0183 47.4053 71.0552 47.4053 73.5679V95.7851H38.3062V73.5679Z" fill="white"/>
<path d="M155.685 73.5679C155.685 71.0552 157.721 69.0183 160.234 69.0183C162.747 69.0183 164.784 71.0552 164.784 73.5679V95.7851H155.685V73.5679Z" fill="white"/>
<path d="M66.5137 142.304C66.5137 138.787 69.3653 135.935 72.883 135.935C76.4007 135.935 79.2524 138.787 79.2524 142.304V151.995H66.5137V142.304Z" fill="#0066AB"/>
<path d="M122.928 142.304C122.928 138.787 125.779 135.935 129.297 135.935C132.815 135.935 135.666 138.787 135.666 142.304V151.995H122.928V142.304Z" fill="#0066AB"/>
</svg>
