<svg width="418" height="469" viewBox="0 0 418 469" fill="none" xmlns="http://www.w3.org/2000/svg">
<path d="M38 16.6857V170H493V71.441C493 56.1095 478.556 52.2767 471.333 52.2767H281.75C244.917 54.4669 235.708 31.2872 235.708 19.4236C235.708 4.0922 219.458 0.259239 211.333 0.25919H62.375C45.0417 -1.93101 38.9028 10.2976 38 16.6857Z" fill="#009966"/>
<rect x="52" y="71" width="418" height="175" rx="3" fill="white"/>
<path d="M0.0940953 193.361L27.2807 441.977C31.6293 463.595 54.4677 469 65.3433 469H467.704C489.454 466.838 498.516 448.282 500.328 439.274L530.234 133.909C534.583 110.129 519.359 104.183 511.203 104.183H223.025C201.276 102.022 194.026 119.497 193.12 128.505C186.595 156.609 165.027 163.635 155.059 163.635H32.718C4.44395 163.635 -0.812124 183.452 0.0940953 193.361Z" fill="#009966"/>
<path d="M148.148 282.04V295.704H125.456V365H108.864V295.704H86.172V282.04H148.148ZM171.367 282.04V334.988C171.367 342.552 173.075 352.556 188.203 352.556C202.599 352.556 204.551 342.552 204.551 334.988V282.04H221.143V334.988C221.143 356.46 208.455 366.22 187.959 366.22C167.463 366.22 154.775 356.46 154.775 334.988V282.04H171.367ZM270.575 334.988H251.787V365H235.195V282.04H270.575C287.899 282.04 298.757 292.776 298.757 308.514C298.757 324.618 287.899 334.988 270.575 334.988ZM251.787 295.704V321.324H268.989C276.675 321.324 282.165 317.664 282.165 308.514C282.165 299.852 276.675 295.704 268.989 295.704H251.787ZM348.664 365L342.442 345.236H313.65L307.428 365H291.202L318.652 281.43H338.66L365.744 365H348.664ZM328.412 298.022H328.046L316.578 333.036H339.514L328.412 298.022Z" fill="white"/>
</svg>
