<svg width="486" height="469" viewBox="0 0 486 469" fill="none" xmlns="http://www.w3.org/2000/svg">
<path d="M42.0078 16.6857V170H544.993V71.441C544.993 56.1095 529.025 52.2767 521.041 52.2767H311.464C270.746 54.4669 260.567 31.2872 260.567 19.4236C260.567 4.0922 242.603 0.259239 233.621 0.25919H68.9534C49.7921 -1.93101 43.0058 10.2976 42.0078 16.6857Z" fill="#EECC00"/>
<rect x="57.4844" y="71" width="462.083" height="175" rx="3" fill="white"/>
<path d="M0.104019 193.361L30.1577 441.977C34.965 463.595 60.212 469 72.2345 469H517.029C541.072 466.838 551.09 448.282 553.094 439.274L586.153 133.909C590.961 110.129 574.131 104.183 565.115 104.183H246.546C222.503 102.022 214.489 119.497 213.487 128.505C206.274 156.609 182.431 163.635 171.412 163.635H36.1685C4.91261 163.635 -0.897771 183.452 0.104019 193.361Z" fill="#EECC00"/>
<path d="M133.148 282.04V295.704H110.456V365H93.864V295.704H71.172V282.04H133.148ZM156.367 282.04V334.988C156.367 342.552 158.075 352.556 173.203 352.556C187.599 352.556 189.551 342.552 189.551 334.988V282.04H206.143V334.988C206.143 356.46 193.455 366.22 172.959 366.22C152.463 366.22 139.775 356.46 139.775 334.988V282.04H156.367ZM277.183 285.212L273.767 298.144C262.787 295.094 254.857 294.118 248.269 294.118C238.387 294.118 234.483 298.266 234.483 303.634C234.483 319.494 279.135 311.198 279.135 340.966C279.135 358.29 265.593 366.22 247.903 366.22C238.509 366.22 228.139 365.366 216.671 362.194L218.989 348.896C231.067 351.946 240.583 352.922 247.171 352.922C257.053 352.922 262.543 348.164 262.543 342.186C262.543 326.204 217.891 333.524 217.891 303.634C217.891 287.164 231.555 280.82 247.903 280.82C257.297 280.82 266.081 282.04 277.183 285.212ZM304.782 365H289.654V282.04H304.782L342.236 337.794H342.48L342.114 317.176V282.04H357.242V365H341.138L304.66 310.832H304.416L304.782 329.864V365ZM427.615 282.04V295.704H388.453V315.224H422.003V328.888H388.453V351.336H428.225V365H371.861V282.04H427.615Z" fill="white"/>
</svg>
