<svg viewBox="0 0 648 145" xmlns="http://www.w3.org/2000/svg">
    <path d="M87.497 40.954c-15.72.339-28.367 13.181-28.416 28.952h10.643c.05-9.911 7.961-17.969 17.773-18.261V40.954zm0-9.23V21.081c-26.901.047-48.777 21.873-48.918 48.825h10.643c.143-21.044 17.231-38.133 38.275-38.182zm0-20.164V.917c-37.935.293-68.791 31.051-69.279 68.989h10.645c.486-32.078 26.555-58.052 58.634-58.346zm496.936 91.007l7.13-10.154c5.171 3.369 12.007 5.222 17.575 5.222 7.033 0 9.082-.73 9.082-4.147 0-2.932-2.049-3.566-8.885-4.446-12.307-1.66-21.778-3.465-21.778-16.5 0-10.205 5.958-15.673 21.778-15.673 8.103 0 15.816 1.612 21.09 4.588l-6.541 10.791c-3.515-1.856-9.082-3.271-14.062-3.271-7.13 0-8.494 1.22-8.494 3.613 0 2.832 1.755 3.466 8.2 4.346 12.794 1.757 22.165 3.27 22.165 15.72 0 11.523-6.151 16.209-23.337 16.209-8.594 0-17.184-1.757-23.923-6.298zm-14.356-19.089c0-8.056-1.755-13.963-10.837-13.963-9.568 0-12.889 4.394-12.889 13.963 0 9.568 2.733 13.671 12.889 13.671 8.885 0 10.837-5.713 10.837-13.671zm-25.583 20.212l-2.733 4.883-9.275-.976V39.44h13.768v22.213c2.83-3.172 8.103-4.784 16.404-4.784 17.186 0 21.481 11.67 21.481 26.071 0 14.404-4.589 25.925-22.262 25.925-9.568 0-14.746-1.952-17.383-5.175zm-34.567-16.404V85.43h-1.172c-17.672 0-19.822 1.417-19.822 6.787 0 3.709 2.053 5.469 8.397 5.469 8.788 0 12.597-3.078 12.597-10.4zm-34.077 6.102c0-14.157 9.863-17.527 32.028-17.527h2.049c-.097-4.492-1.269-6.787-9.96-6.787-6.054 0-11.424 2.198-14.451 4.053l-6.836-10.156c3.518-2.391 12.306-6.102 22.849-6.102 17.971 0 21.678 5.759 21.678 19.872v15.233c0 3.952.294 4.589 4.397 4.589v11.326c-.979.194-2.734.294-5.858.294-5.273 0-7.616-.977-9.573-4.884-2.536 3.418-8.104 5.566-17.575 5.566-15.427 0-18.748-6.737-18.748-15.477zm-47.554-50.825h14.502v52.925h29.584v12.595h-44.086v-65.52z" fill="#53BCE2"></path>
    <path d="M69.678 75.861c-.538 37.887-31.394 68.647-69.38 68.842v-10.644c32.079-.195 58.199-26.17 58.736-58.198h10.644zm-31.053 0h10.643c-.147 26.952-22.018 48.822-48.97 48.822v-10.641c21.044 0 38.179-17.137 38.327-38.181zM.298 93.974c9.813-.243 17.774-8.25 17.871-18.113h10.643c-.097 15.77-12.84 28.513-28.514 28.805V93.974zm342.315-35.153l10.786-.781 1.171 4.297c2.201-2.979 7.475-5.468 17.58-5.468 10.934 0 12.988 2.489 14.549 5.664 2.586-3.272 8.058-5.664 18.554-5.664 15.132 0 17.475 8.397 17.475 20.848v30.366h-13.915V80.451c0-6.104-.096-10.497-8.494-10.497-9.619 0-10.689 4.492-10.689 11.13v26.999h-13.868V80.451c0-6.104-.194-10.497-8.591-10.497-9.619 0-10.694 4.492-10.694 11.13v26.999h-13.864V58.821zm-22.609 28.465V85.43h-1.172c-17.629 0-19.779 1.417-19.779 6.787 0 3.709 2.053 5.469 8.398 5.469 8.744 0 12.553-3.078 12.553-10.4zm-34.087 6.102c0-14.157 9.864-17.527 32.033-17.527h2.054c-.101-4.492-1.223-6.787-9.915-6.787-6.102 0-11.473 2.198-14.455 4.053l-6.882-10.156c3.515-2.391 12.354-6.102 22.852-6.102 18.016 0 21.729 5.759 21.729 19.872v15.233c0 3.952.294 4.589 4.347 4.589v11.326c-.975.194-2.735.294-5.813.294-5.32 0-7.618-.977-9.57-4.884-2.536 3.418-8.105 5.566-17.579 5.566-15.48 0-18.801-6.737-18.801-15.477zm-38.378-15.037h22.169c-.344-5.761-1.516-9.911-10.06-9.911-8.591 0-11.425 3.808-12.109 9.911zm-13.423 4.589c0-13.963 4.589-26.071 25.972-26.071 21.975 0 22.705 14.695 22.264 31.393h-34.813c.781 6.006 3.711 9.521 12.595 9.521 7.718 0 12.064-1.857 15.725-4.59l6.984 9.032c-6.446 4.883-12.795 6.835-22.709 6.835-21.627 0-26.018-11.911-26.018-26.12zm-30.811-24.119l10.791-.781 1.369 5.468c2.146-3.174 8.25-5.76 16.014-6.004v13.231c-11.77.098-14.305 4.687-14.305 12.548v24.8h-13.869V58.821zm-39.74-.781h8.788l2.439-12.206 10.745-2.196V58.04h11.861v11.815h-11.861V90.46c0 3.905.533 6.004 6.44 6.004h5.421v11.619c-2.049.1-5.761.1-8.25.1-13.474 0-17.383-4.59-17.383-15.674V69.855h-8.2V58.04zm-58.929 42.427l7.273-10.448c6.931 4.687 15.085 6.982 23.482 6.982 12.794 0 15.188-2.489 15.188-7.959 0-5.37-5.472-6.444-15.528-7.859-17.529-2.49-26.606-5.664-26.606-19.87 0-14.6 8.833-19.824 27.291-19.824 13.326 0 21.48 3.126 26.511 6.444l-7.764 11.23c-4.149-2.734-11.865-5.028-18.944-5.028-10.204 0-12.693 2.051-12.693 6.785 0 5.322 5.37 6.3 15.817 7.814 15.723 2.295 26.22 4.833 26.22 19.627 0 13.229-7.225 20.699-29.05 20.699-12.987 0-23.778-3.124-31.197-8.593zm527.549-47.699c0-4.492 2.636-8.007 7.809-8.007 5.177 0 7.713 3.515 7.713 8.007 0 4.541-2.536 8.007-7.713 8.007-5.173 0-7.809-3.466-7.809-8.007zm14.254 0c0-3.808-1.856-6.787-6.445-6.787-4.685 0-6.542 2.979-6.542 6.787 0 3.809 1.857 6.836 6.542 6.836 4.589 0 6.445-3.027 6.445-6.836zm-6.151 1.514h-2.15v3.27h-2.049v-9.471h4.59c3.123 0 3.61 1.219 3.61 3.075 0 1.318-.289 2.49-1.952 2.93l1.952 3.466h-2.246l-1.755-3.27zm.294-1.709c1.268 0 1.658-.294 1.658-1.368 0-1.122-.39-1.415-1.658-1.415h-2.444v2.783h2.444z" fill="currentColor"></path>
  </svg>