<svg width="30" height="29" viewBox="0 0 30 29" fill="none" xmlns="http://www.w3.org/2000/svg">
<path fill-rule="evenodd" clip-rule="evenodd" d="M15 0C6.71573 0 0 6.49187 0 14.5C0 22.5081 6.71573 29 15 29C23.2843 29 30 22.5081 30 14.5C30 6.49187 23.2843 0 15 0ZM11.702 6.81339C12.5554 6.77585 12.8281 6.76667 15.0008 6.76667H14.9983C17.1716 6.76667 17.4433 6.77585 18.2966 6.81339C19.1483 6.85109 19.73 6.98143 20.24 7.17267C20.7666 7.37003 21.2116 7.63426 21.6567 8.06443C22.1017 8.49428 22.375 8.92574 22.58 9.43437C22.7767 9.92609 22.9117 10.488 22.9517 11.3113C22.99 12.1362 23 12.3998 23 14.5001C23 16.6003 22.99 16.8633 22.9517 17.6882C22.9117 18.5111 22.7767 19.0733 22.58 19.5651C22.375 20.0736 22.1017 20.5051 21.6567 20.9349C21.2121 21.3651 20.7665 21.63 20.2405 21.8275C19.7315 22.0187 19.1495 22.1491 18.2978 22.1868C17.4444 22.2243 17.1726 22.2335 14.9998 22.2335C12.8272 22.2335 12.5547 22.2243 11.7014 22.1868C10.8499 22.1491 10.2684 22.0187 9.75936 21.8275C9.23352 21.63 8.78719 21.3651 8.34268 20.9349C7.89784 20.5051 7.62451 20.0736 7.42 19.565C7.22234 19.0733 7.0875 18.5113 7.04833 17.688C7.00967 16.8631 7 16.6003 7 14.5001C7 12.3998 7.01 12.1361 7.04817 11.3112C7.0865 10.4882 7.2215 9.92609 7.41984 9.43421C7.62484 8.92574 7.89818 8.49428 8.34318 8.06443C8.78785 7.63442 9.23419 7.3702 9.76036 7.17267C10.269 6.98143 10.8504 6.85109 11.702 6.81339Z" fill="#16236E"/>
<path fill-rule="evenodd" clip-rule="evenodd" d="M14.2831 8.16014C14.4225 8.15993 14.5724 8.15999 14.7341 8.16006L15.0008 8.16014C17.1368 8.16014 17.39 8.16755 18.2335 8.2046C19.0135 8.23908 19.4368 8.36507 19.7188 8.47092C20.0922 8.61109 20.3583 8.77865 20.6382 9.04932C20.9182 9.31999 21.0915 9.57777 21.2368 9.93866C21.3463 10.2109 21.4769 10.6202 21.5124 11.3742C21.5507 12.1894 21.559 12.4343 21.559 14.4982C21.559 16.562 21.5507 16.8069 21.5124 17.6221C21.4767 18.3761 21.3463 18.7854 21.2368 19.0576C21.0918 19.4185 20.9182 19.6755 20.6382 19.946C20.3582 20.2167 20.0923 20.3842 19.7188 20.5244C19.4372 20.6308 19.0135 20.7564 18.2335 20.7909C17.3901 20.828 17.1368 20.836 15.0008 20.836C12.8646 20.836 12.6114 20.828 11.7681 20.7909C10.9881 20.7561 10.5647 20.6301 10.2826 20.5243C9.90923 20.3841 9.64256 20.2165 9.36256 19.9459C9.08256 19.6752 8.90922 19.4181 8.76389 19.057C8.65439 18.7847 8.52388 18.3755 8.48838 17.6215C8.45005 16.8063 8.44238 16.5614 8.44238 14.4962C8.44238 12.4311 8.45005 12.1875 8.48838 11.3722C8.52405 10.6182 8.65439 10.209 8.76389 9.93641C8.90889 9.57551 9.08256 9.31773 9.36256 9.04706C9.64256 8.77639 9.90923 8.60884 10.2826 8.46835C10.5646 8.36201 10.9881 8.23634 11.7681 8.2017C12.5061 8.16948 12.7921 8.15981 14.2831 8.1582V8.16014ZM19.2712 9.44421C18.7412 9.44421 18.3112 9.85939 18.3112 10.3719C18.3112 10.8842 18.7412 11.2999 19.2712 11.2999C19.8012 11.2999 20.2312 10.8842 20.2312 10.3719C20.2312 9.85955 19.8012 9.44388 19.2712 9.44388V9.44421ZM10.8924 14.4999C10.8924 12.3067 12.7318 10.5286 15.0006 10.5285C17.2695 10.5285 19.1085 12.3067 19.1085 14.4999C19.1085 16.6932 17.2696 18.4705 15.0008 18.4705C12.7319 18.4705 10.8924 16.6932 10.8924 14.4999Z" fill="#16236E"/>
<path d="M15.0007 11.9219C16.4734 11.9219 17.6674 13.0759 17.6674 14.4997C17.6674 15.9233 16.4734 17.0775 15.0007 17.0775C13.5278 17.0775 12.334 15.9233 12.334 14.4997C12.334 13.0759 13.5278 11.9219 15.0007 11.9219Z" fill="#16236E"/>
</svg>
