<svg width="29" height="29" viewBox="0 0 29 29" fill="none" xmlns="http://www.w3.org/2000/svg">
<path fill-rule="evenodd" clip-rule="evenodd" d="M0 14.5C0 22.5081 6.49187 29 14.5 29C22.5081 29 29 22.5081 29 14.5C29 6.49187 22.5081 0 14.5 0C6.49187 0 0 6.49187 0 14.5ZM23.6 13.9451C23.5981 18.6979 19.7318 22.5652 14.9779 22.5671H14.9744C13.5313 22.5667 12.1134 22.2046 10.8541 21.5177L6.28333 22.7167L7.50654 18.2488C6.75201 16.9411 6.35497 15.4579 6.35562 13.9383C6.35751 9.18436 10.2254 5.31667 14.9779 5.31667C17.2844 5.31766 19.4492 6.21559 21.0771 7.84535C22.7049 9.47504 23.601 11.6413 23.6 13.9451Z" fill="#16236E"/>
<path fill-rule="evenodd" clip-rule="evenodd" d="M8.35365 20.6687L11.066 19.9572L11.3277 20.1125C12.428 20.7655 13.6892 21.111 14.9752 21.1115H14.9781C18.928 21.1115 22.1428 17.8966 22.1444 13.945C22.1451 12.0302 21.4004 10.2297 20.0474 8.87506C18.6944 7.52046 16.8951 6.7741 14.9809 6.77344C11.028 6.77344 7.81309 9.98801 7.81152 13.9392C7.81097 15.2934 8.18985 16.6121 8.90722 17.7531L9.07761 18.0242L8.35365 20.6687ZM19.0268 15.8019C19.1771 15.8745 19.2785 15.9235 19.3219 15.9959C19.3757 16.0857 19.3757 16.517 19.1963 17.0204C19.0167 17.5236 18.156 17.9829 17.742 18.0447C17.3709 18.1002 16.9012 18.1233 16.3851 17.9593C16.0722 17.8601 15.6709 17.7275 15.1569 17.5055C13.1372 16.6334 11.7724 14.6759 11.5144 14.3059C11.4963 14.28 11.4837 14.2619 11.4766 14.2525L11.4749 14.2502C11.3609 14.098 10.5969 13.0788 10.5969 12.0238C10.5969 11.0315 11.0844 10.5113 11.3088 10.2719C11.3242 10.2555 11.3383 10.2404 11.351 10.2266C11.5484 10.0109 11.7818 9.95698 11.9255 9.95698C12.0691 9.95698 12.2128 9.95831 12.3384 9.96462C12.3539 9.96539 12.37 9.9653 12.3866 9.9652C12.5122 9.96447 12.6687 9.96355 12.8231 10.3344C12.8825 10.4772 12.9694 10.6888 13.0611 10.912C13.2465 11.3633 13.4513 11.8619 13.4873 11.9341C13.5412 12.0419 13.5771 12.1677 13.5053 12.3115C13.4945 12.3331 13.4845 12.3535 13.475 12.3729C13.4211 12.483 13.3814 12.564 13.2899 12.6709C13.2539 12.7129 13.2167 12.7582 13.1795 12.8036C13.1053 12.8938 13.0312 12.9841 12.9667 13.0484C12.8588 13.1558 12.7466 13.2723 12.8722 13.488C12.9979 13.7037 13.4303 14.4092 14.0707 14.9805C14.7592 15.5945 15.3576 15.8541 15.6609 15.9857C15.7201 16.0113 15.7681 16.0322 15.8033 16.0498C16.0186 16.1576 16.1443 16.1396 16.27 15.9959C16.3957 15.8521 16.8085 15.3668 16.9521 15.1511C17.0957 14.9355 17.2394 14.9714 17.4368 15.0433C17.6344 15.1152 18.6936 15.6364 18.909 15.7442C18.951 15.7653 18.9904 15.7843 19.0268 15.8019Z" fill="#16236E"/>
</svg>
