<svg width="30" height="29" viewBox="0 0 30 29" fill="none" xmlns="http://www.w3.org/2000/svg">
<path fill-rule="evenodd" clip-rule="evenodd" d="M15 0C6.71573 0 0 6.49187 0 14.5C0 22.5081 6.71573 29 15 29C23.2843 29 30 22.5081 30 14.5C30 6.49187 23.2843 0 15 0ZM21.251 9.51522C21.9395 9.69784 22.4816 10.2359 22.6656 10.9192C23 12.1577 23 14.7417 23 14.7417C23 14.7417 23 17.3256 22.6656 18.5641C22.4816 19.2474 21.9395 19.7855 21.251 19.9682C20.0034 20.3 15 20.3 15 20.3C15 20.3 9.99664 20.3 8.74891 19.9682C8.06045 19.7855 7.51827 19.2474 7.33427 18.5641C7 17.3256 7 14.7417 7 14.7417C7 14.7417 7 12.1577 7.33427 10.9192C7.51827 10.2359 8.06045 9.69784 8.74891 9.51522C9.99664 9.18333 15 9.18333 15 9.18333C15 9.18333 20.0034 9.18333 21.251 9.51522Z" fill="#16236E"/>
<path d="M13.5 17.3997V12.5664L17.5 14.9832L13.5 17.3997Z" fill="#16236E"/>
</svg>
