<svg width="418" height="362" viewBox="0 0 418 362" fill="none" xmlns="http://www.w3.org/2000/svg">
<path d="M79.0346 277.729C78.1836 287.119 93.2233 289.822 100.85 290H345V99H333.29" stroke="#16236E" stroke-width="5"/>
<path d="M102.035 300.793C101.184 310.134 116.223 312.823 123.85 313H368V123H356.29" stroke="#16236E" stroke-width="5"/>
<path d="M110.994 77.1647H321V267H77.5837C68.2147 266.646 49.5829 260.425 50.0071 238.366V71.8621C50.0071 67.6197 56.9004 48 77.5828 48C88.1892 48 104.099 57.0145 104.099 71.8621V77.1647H110.994Z" fill="#009966" fill-opacity="0.94"/>
<path d="M50.0071 238.366C49.5829 260.425 68.2147 266.646 77.5837 267H321V77.1647H110.994H104.099M50.0071 238.366V71.8621C50.0071 67.6197 56.9004 48 77.5828 48C88.1892 48 104.099 57.0145 104.099 71.8621V77.1647M50.0071 238.366C52.9776 217.579 69.6292 213.09 77.5837 213.443C97.1002 213.019 103.392 226.346 104.099 233.063V77.1647" stroke="#16236E" stroke-width="5"/>
<g clip-path="url(#clip0_385_2188)">
<rect width="183" height="151" transform="translate(120 92)" fill="white"/>
<path d="M138.326 64.9512L177.324 262.317" stroke="#16236E" stroke-width="6"/>
<line x1="178.277" y1="65.8062" x2="243.431" y2="267.452" stroke="#16236E" stroke-width="13"/>
<line x1="239.163" y1="72.6323" x2="297.184" y2="261.913" stroke="#16236E" stroke-width="6"/>
<line x1="264.84" y1="63.4156" x2="296.229" y2="166.141" stroke="#16236E" stroke-width="4"/>
<line x1="209.674" y1="63.4156" x2="230.6" y2="131.899" stroke="#16236E" stroke-width="4"/>
<line x1="246.768" y1="182.311" x2="267.694" y2="250.794" stroke="#16236E" stroke-width="4"/>
<line x1="188.749" y1="198.481" x2="209.674" y2="266.964" stroke="#16236E" stroke-width="4"/>
<line x1="172.475" y1="147.798" x2="248.568" y2="183.942" stroke="#16236E" stroke-width="4"/>
<line x1="187.947" y1="201.888" x2="228.47" y2="129.927" stroke="#16236E" stroke-width="4"/>
<line x1="100.611" y1="228.552" x2="339.353" y2="150.557" stroke="#16236E" stroke-width="4"/>
<line x1="100.113" y1="119.138" x2="272.273" y2="65.8732" stroke="#16236E" stroke-width="14"/>
<line x1="237.896" y1="276.976" x2="322.549" y2="188.518" stroke="#16236E" stroke-width="14"/>
<line x1="96.1563" y1="173.395" x2="332.044" y2="94.4487" stroke="#16236E" stroke-width="8"/>
<line x1="99.9629" y1="200.979" x2="335.851" y2="122.033" stroke="#16236E" stroke-width="8"/>
<path d="M96 238.062L174.946 246.147L203.006 243.769L345.725 195.408" stroke="#16236E" stroke-width="6"/>
<circle cx="209.664" cy="163.872" r="24.7302" fill="#0066AB"/>
<circle cx="209.666" cy="163.872" r="11.4139" fill="white"/>
</g>
<defs>
<clipPath id="clip0_385_2188">
<rect width="183" height="151" fill="white" transform="translate(120 92)"/>
</clipPath>
</defs>
</svg>
