<svg width="418" height="362" viewBox="0 0 418 362" fill="none" xmlns="http://www.w3.org/2000/svg">
<path d="M97.541 236.985L109.968 200.357C110.244 199.546 111.005 199 111.862 199H291.891C292.729 199 293.478 199.522 293.768 200.309L297.778 211.193C298.08 212.013 297.815 212.935 297.122 213.468L221.216 271.965C220.72 272.347 220.074 272.475 219.47 272.311L98.9106 239.558C97.7978 239.255 97.1705 238.077 97.541 236.985Z" fill="#EECC00" fill-opacity="0.86" stroke="#16236E" stroke-width="5"/>
<path d="M73.8519 299.466L66.2416 323.566C65.8368 324.847 66.7862 326.155 68.1302 326.168L218.714 327.562C219.343 327.568 219.938 327.278 220.321 326.778L252.865 284.271C253.739 283.13 253.159 281.466 251.765 281.116L125.099 249.276C124.417 249.105 123.695 249.305 123.197 249.802L74.3449 298.654C74.1177 298.881 73.9487 299.16 73.8519 299.466Z" fill="#B39900" stroke="#16236E" stroke-width="5"/>
<path d="M109.952 199.606L64.9675 324.178C64.4968 325.481 65.4626 326.857 66.8486 326.857H350.796C352.275 326.857 353.242 325.307 352.593 323.979L291.691 199.407C291.356 198.721 290.658 198.286 289.894 198.286H111.833C110.99 198.286 110.238 198.814 109.952 199.606Z" stroke="#16236E" stroke-width="5"/>
<path d="M300.936 211.143L220.428 273.286" stroke="#16236E" stroke-width="5"/>
<path d="M253.285 281.857L220.252 326.143" stroke="#16236E" stroke-width="5"/>
<path d="M124.715 247.572L74.7148 297.572" stroke="#16236E" stroke-width="5"/>
<path d="M126.096 296.398L175.466 132.566C175.721 131.721 176.499 131.143 177.381 131.143H229.019C229.864 131.143 230.619 131.675 230.903 132.472L288.689 294.647C289.514 296.961 286.248 298.437 285.056 296.288L216.474 172.606C215.516 170.878 212.899 171.438 212.732 173.407L207.335 237.186C207.13 239.618 203.575 239.632 203.351 237.201L197.491 173.717C197.307 171.723 194.631 171.207 193.719 172.989L129.791 297.886C128.681 300.055 125.393 298.73 126.096 296.398Z" fill="#16236E"/>
<rect x="156.857" y="34" width="90" height="90" rx="4" fill="#16236E"/>
<circle cx="201.857" cy="78.9999" r="13.5714" fill="white"/>
<path d="M98.2852 239L343.285 305.429" stroke="#16236E" stroke-width="5"/>
</svg>
